<?xml version="1.0" standalone="no"?>
<!DOCTYPE svg PUBLIC "-//W3C//DTD SVG 1.1//EN" "http://www.w3.org/Graphics/SVG/1.1/DTD/svg11.dtd" >
<svg xmlns="http://www.w3.org/2000/svg">
<metadata></metadata>
<defs>
<font id="cmu_serif_extraBdnonEx" horiz-adv-x="1024" >
<font-face units-per-em="2048" ascent="1638" descent="-410" />
<missing-glyph horiz-adv-x="681" />
<glyph unicode="&#xfb01;" horiz-adv-x="1136" d="M31 0v98h143v715h-119v98h119v156q0 6 -1 20.5t-1 22.5q0 92 48 158.5t127 100.5t161 49.5t170 15.5q133 0 204.5 -76t71.5 -162q0 -59 -35.5 -97t-97.5 -38q-57 0 -96 38t-39 95q0 94 96 129q-53 35 -123 35q-49 0 -94 -11.5t-87 -38t-67.5 -77.5t-25.5 -123v-197h213v9 l365 10v-832h143v-98q-131 6 -264 6q-23 0 -244 -6v98h143v650q0 37 -11 51t-44 14h-291v-715h144v-98q-221 6 -244 6q-131 0 -264 -6z" />
<glyph unicode="&#xfb02;" horiz-adv-x="1136" d="M31 0v98h143v715h-119v98h119v191q0 66 10 96q37 111 165 173.5t321 62.5q55 0 104 -11.5t57.5 -11.5t131.5 10v-1323h143v-98q-131 6 -264 6q-23 0 -244 -6v98h143v715h-346v-715h144v-98q-221 6 -244 6q-131 0 -264 -6zM385 911h356v195q0 41 -24.5 72.5t-24.5 74.5 q0 51 41 99q-41 6 -78 6q-51 0 -95 -11.5t-85 -38t-65.5 -77.5t-24.5 -123v-197z" />
<glyph unicode="&#xfb03;" horiz-adv-x="1705" d="M31 0v98h143v715h-119v98h119v156q0 6 -1 20.5t-1 22.5q0 90 47 157.5t124 101.5t158 49.5t167 15.5q129 0 213 -84h2q137 84 364 84q131 0 204 -75t73 -163q0 -59 -38 -97t-95.5 -38t-96.5 37t-39 96q0 98 97 129q-53 35 -123 35q-49 0 -93 -11.5t-88 -38t-70 -77.5 t-26 -123v-197h215v9l365 10v-832h143v-98q-221 6 -243 6q-133 0 -265 -6v98h144v650q0 37 -11.5 51t-44.5 14h-290v-715h141v-98q-221 6 -244 6q-129 0 -262 -6v98h141v715h-346v-715h144v-98q-221 6 -244 6q-131 0 -264 -6zM385 911h356v131q0 27 -32.5 62t-32.5 88 q0 92 98 133q-59 33 -119 33q-109 0 -189.5 -56.5t-80.5 -191.5v-199z" />
<glyph unicode="&#xfb04;" horiz-adv-x="1705" d="M31 0v98h143v715h-119v98h119v156q0 6 -1 20.5t-1 22.5q0 92 47 158.5t126 100.5t160 49.5t167 15.5q135 0 219 -78q145 78 348 78q55 0 103.5 -10.5t56.5 -10.5t133 8v-1323h143v-98q-221 6 -243 6q-133 0 -265 -6v98h144v715h-346v-715h141v-98q-221 6 -244 6 q-129 0 -262 -6v98h141v715h-346v-715h144v-98q-221 6 -244 6q-131 0 -264 -6zM385 911h356v174q0 35 -24.5 68t-24.5 76q0 61 66 112q-51 16 -101 17q-98 0 -166.5 -40t-93.5 -114q-12 -35 -12 -106v-187zM952 911h359v195q0 41 -24.5 72.5t-24.5 74.5q0 51 41 99 q-41 6 -78 6q-51 0 -95.5 -11.5t-86.5 -38t-66.5 -77.5t-24.5 -123v-197z" />
<glyph horiz-adv-x="0" />
<glyph unicode="&#xd;" horiz-adv-x="681" />
<glyph unicode=" "  horiz-adv-x="681" />
<glyph unicode="&#x09;" horiz-adv-x="681" />
<glyph unicode="&#xa0;" horiz-adv-x="681" />
<glyph unicode="!" horiz-adv-x="624" d="M152 160q0 61 46 109t113 48q63 0 111.5 -46t48.5 -113q0 -61 -46 -109.5t-114 -48.5q-70 0 -114.5 48.5t-44.5 111.5zM152 1298q0 66 50 106t109 40q61 0 111.5 -41t50.5 -107q0 -23 -8 -67l-98 -705q-4 -39 -13.5 -51t-42.5 -12q-18 0 -27.5 3t-15.5 17.5t-7 21.5 t-5 40l-96 684q-8 44 -8 71z" />
<glyph unicode="&#x22;" d="M209 1331q0 55 39 89t92 34q55 0 92 -34t37 -89l-92 -596h-76l-84 527q-8 44 -8 69zM553 1331q0 55 37 89t92 34t93 -34t38 -89q0 -25 -8 -69l-84 -527h-76q-92 571 -92 596z" />
<glyph unicode="#" horiz-adv-x="1705" d="M115 285q0 37 75 37h334l103 380h-455q-57 0 -57 37t63 37h471q2 14 10.5 39t10.5 39l133 496q18 70 49 69q16 0 26.5 -12t8.5 -31q-2 -14 -162 -600h399q2 14 10.5 39t10.5 39l133 496q0 2 2 10t3 10t4 9t4 11.5t4 9.5t6.5 8t7.5 6t8 4t10 1q16 0 26.5 -12t8.5 -31 q-2 -14 -162 -600h336q51 -2 51 -37q0 -37 -63 -37h-346l-103 -380h457q55 0 55 -37q0 -39 -63 -39h-469q-2 -12 -10.5 -37t-10.5 -39l-135 -496q0 -4 -3 -13t-4 -13t-4 -12.5t-6 -12.5t-7.5 -9t-10.5 -7t-12 -2q-16 0 -26.5 12t-8.5 31q0 4 162 598h-399q-2 -12 -10.5 -37 t-10.5 -39l-133 -496q0 -2 -2 -10t-3 -10t-4 -9t-4 -11.5t-4 -9.5t-6.5 -8t-7.5 -6t-8 -4t-10 -1q-16 0 -26.5 12t-8.5 31q0 4 162 598h-336q-53 0 -53 39zM602 322h397l103 380h-397z" />
<glyph unicode="$" d="M113 379q0 74 40 105.5t87 31.5q55 0 92 -38t37 -91q0 -27 -8.5 -50.5t-40 -49t-87.5 -27.5q57 -141 228 -170v512l-19 4q-16 4 -25 6t-29.5 9.5t-36 14.5t-37 18.5t-40 26.5t-38 32.5t-38 42t-32.5 51.5q-53 96 -53 213q0 51 11 103.5t44 123t108.5 120.5t184.5 63v106 h98v-104q88 -10 153.5 -42t101.5 -71t58.5 -89t28.5 -87t6 -72q0 -72 -41 -104.5t-86 -32.5q-53 0 -91 35t-38 92q0 43 30 84t103 45q-68 121 -225 141v-454q63 -14 105 -33q111 -49 178 -161t67 -253q0 -197 -100 -308.5t-250 -129.5v-105h-98v103q-109 12 -184.5 60 t-107.5 113.5t-44 116t-12 99.5zM279 1120q0 -80 48 -139t134 -80v430q-59 -12 -100.5 -40.5t-56.5 -64.5t-20 -59.5t-5 -46.5zM559 92q94 20 139 86t45 154q0 90 -50 156.5t-132 86.5l-2 -73v-410z" />
<glyph unicode="%" horiz-adv-x="1705" d="M115 1124q0 209 94 310.5t215 101.5q78 0 147 -59q170 -154 375 -154q223 0 354 178q25 35 58 35q23 0 42 -17.5t19 -45.5q0 -20 -18 -48l-995 -1501q-27 -39 -58 -39q-27 0 -45 18.5t-18 45.5q0 16 22 51l856 1294q-96 -43 -215 -43q-147 0 -291 74q25 -86 25 -201 q0 -213 -77 -313t-181 -100q-117 0 -213 99t-96 314zM326 1122.5q0 -51.5 1 -78t3 -73.5t9 -74t17.5 -56.5t28.5 -43t43 -13.5q59 0 108.5 82t49.5 258q0 170 -49.5 254t-108.5 84q-25 0 -43 -13t-28.5 -43t-17.5 -56.5t-9 -73.5t-3 -74.5t-1 -79zM1022 299q0 209 94 310.5 t215 101.5q104 0 181 -100.5t77 -313.5q0 -207 -75.5 -309.5t-182.5 -102.5q-117 0 -213 99.5t-96 314.5zM1233 297q0 -51 1 -77.5t3 -74t9 -74t17.5 -56t29 -43t42.5 -13.5q59 0 108.5 82t49.5 258q0 170 -49 254t-109 84q-25 0 -43 -13.5t-28.5 -43t-17.5 -56t-9 -74 t-3 -75t-1 -78.5z" />
<glyph unicode="&#x26;" horiz-adv-x="1591" d="M86 281q0 84 51 155q10 16 113 119q119 119 127 125q-84 205 -84 401q0 166 105.5 264.5t234.5 98.5q102 0 152.5 -85t50.5 -183q0 -141 -250 -392q82 -201 307 -471q88 102 164 238q4 6 41 68.5t66.5 113.5t29.5 55q0 25 -158 25v96q82 -6 250 -6q104 0 203 6v-96 q-88 0 -133 -6q-33 -4 -42 -12.5t-32 -44.5q-33 -51 -47 -82q-176 -301 -283 -426q139 -168 246 -168q55 0 115.5 39t66.5 129h97q-2 -117 -85 -191t-206 -74q-197 0 -371 132q-168 -131 -358 -132q-154 0 -262.5 87.5t-108.5 216.5zM348 356q0 -92 11.5 -151.5t32 -86 t40 -35.5t45.5 -9q133 0 264 92q-209 190 -331 442q-62 -80 -62 -252zM506 1157q0 -147 51 -295q182 193 182 316q0 16 -3 38.5t-11 62.5t-30.5 65.5t-57.5 25.5q-49 0 -90 -50t-41 -163z" />
<glyph unicode="'" horiz-adv-x="569" d="M154 1331q0 57 37.5 90t93.5 33q53 0 91 -34t38 -89q0 -10 -3 -30.5t-3 -22.5l-86 -543h-76l-82 522q-10 62 -10 74z" />
<glyph unicode="(" horiz-adv-x="794" d="M188 512q0 569 320 920q104 104 135 104q37 0 37 -29q0 -12 -14 -26q-279 -330 -279 -969q0 -641 272 -958q20 -23 21 -35q0 -29 -37 -29q-39 0 -138 109.5t-161 226.5q-156 305 -156 686z" />
<glyph unicode=")" horiz-adv-x="794" d="M115 -481q0 12 26 43q266 328 267 952q0 639 -273 959q-20 23 -20 34q0 29 37 29q39 0 142 -113.5t175 -259.5q137 -283 137 -651q0 -567 -319 -918q-104 -104 -135 -104q-37 0 -37 29z" />
<glyph unicode="*" d="M127 907q0 55 59 76l248 98l-248 99q-59 20 -59 75q0 43 29.5 72t62.5 29q27 0 57 -29l193 -172l-43 260q-6 39 -6 41q0 35 27.5 57.5t64.5 22.5q35 0 62.5 -21.5t27.5 -58.5q0 -2 -1 -5t-2 -9t-1 -12l-45 -275l192 174q31 27 58 27q33 0 62.5 -29t29.5 -72 q0 -55 -59 -75l-248 -99l248 -98q59 -20 59 -76q0 -43 -29.5 -71.5t-62.5 -28.5q-27 0 -58 29l-192 172l43 -260q6 -39 6 -41q0 -35 -27.5 -57.5t-64.5 -22.5q-35 0 -62.5 21.5t-27.5 58.5q0 2 1 5t2 9t1 12l45 275l-193 -174q-31 -27 -57 -27q-33 0 -62.5 28.5t-29.5 71.5z " />
<glyph unicode="+" horiz-adv-x="1593" d="M115 512q0 37 65 37h578v565q0 78 36.5 78t36.5 -76v-567h578q66 0 66 -37t-62 -37h-582v-567q0 -76 -36.5 -76t-36.5 64v579h-582q-61 0 -61 37z" />
<glyph unicode="," horiz-adv-x="567" d="M125 160q0 68 44 113.5t114 45.5q86 0 135 -73.5t49 -182.5q0 -125 -53.5 -238.5t-106.5 -167.5t-74 -54q-12 0 -25 13t-13 28q0 12 24 34q160 141 172 359q-37 -37 -106 -37q-74 0 -117 47t-43 113z" />
<glyph unicode="-" horiz-adv-x="681" d="M20 356v199h545v-199h-545z" />
<glyph unicode="." horiz-adv-x="569" d="M123 160q0 70 49 114.5t111 44.5q63 0 111 -46t48 -113q0 -61 -46 -110.5t-113 -49.5q-63 0 -111.5 46t-48.5 114z" />
<glyph unicode="/" d="M115 -471q0 8 20 63l688 1887q23 55 49 55q14 0 23.5 -11.5t9.5 -23.5q0 -18 -12 -51l-694 -1901q-20 -57 -49 -57q-14 0 -24.5 11.5t-10.5 27.5z" />
<glyph unicode="0" d="M80 653q0 63 1 102.5t9 119t23.5 134t47.5 123t76 109.5t115.5 70.5t159.5 29.5t158.5 -29.5t114.5 -71.5t76 -110.5t47.5 -123t23.5 -134t9 -118.5t1 -101v-75.5t-4 -88t-11 -100.5t-22.5 -98.5t-36 -97t-54.5 -83.5t-76 -71t-100 -44.5t-128 -17.5q-88 0 -158.5 29 t-114.5 70t-76 107.5t-47.5 119.5t-23.5 132t-9 118t-1 100zM342 676q0 -303 8 -408q4 -68 23.5 -115t48.5 -67t49.5 -27.5t40.5 -7.5q29 0 57.5 12.5t62.5 62.5t40 132q8 98 8 420q0 297 -8 389q-8 111 -57.5 156t-104.5 45q-14 0 -32.5 -5.5t-48.5 -21.5t-52.5 -62 t-28.5 -114q-6 -88 -6 -389z" />
<glyph unicode="1" d="M141 1114v96q287 0 422 131q55 0 67.5 -9t12.5 -56v-1180h238v-96q-78 6 -359 6q-274 0 -352 -6v96h229v1053q-108 -35 -258 -35z" />
<glyph unicode="2" d="M102 0v37q0 43 21 67l323 406q190 238 191 444q0 41 -7 83t-25.5 93.5t-60.5 83t-104 31.5q-104 0 -168 -71q55 -10 90 -48.5t35 -99.5q0 -72 -46 -109.5t-101 -37.5q-51 0 -99.5 35.5t-48.5 115.5q0 129 111 220t272 91q188 0 311.5 -109.5t123.5 -277.5 q0 -158 -144 -303q-20 -20 -94 -83.5t-94 -84.5q-27 -25 -121 -113.5t-121 -113.5h246q176 0 186 16q27 35 45 183h97l-64 -455h-754z" />
<glyph unicode="3" d="M86 285q0 76 45 117.5t112.5 41.5t111.5 -43t44 -112q0 -66 -37.5 -106t-91.5 -50q84 -68 199 -67q43 0 74.5 22.5t46 51t23 77.5t9.5 78t1 76q0 55 -2.5 91t-11.5 81t-26.5 70.5t-50 44t-79.5 18.5h-54q-23 0 -32 1t-17 9t-8 27q0 25 12.5 31t53.5 10q35 2 53 5t40.5 12 t38 29.5t29.5 53.5q31 84 31 211q0 37 -3 61.5t-13.5 60.5t-39 55.5t-73.5 19.5q-104 0 -176 -76q74 -8 102.5 -51t28.5 -91q0 -59 -39 -100t-104 -41q-59 0 -100.5 38t-41.5 108q0 115 94.5 203.5t247.5 88.5q182 0 290 -78.5t108 -205.5q0 -125 -80 -212t-178 -126 q170 -39 241.5 -138.5t71.5 -211.5q0 -168 -122 -280t-335 -112q-170 0 -281.5 90.5t-111.5 217.5z" />
<glyph unicode="4" d="M57 319v97l629 897q14 23 25.5 26.5t38.5 3.5q41 0 50 -12t9 -53v-862h156v-97h-156v-223h156v-96q-80 6 -291 6q-248 0 -320 -6v96h199v223h-496zM158 416h417v594z" />
<glyph unicode="5" d="M102 326q0 57 30 92t57.5 43t50.5 8q49 0 93 -34t44 -105q0 -57 -36 -96t-105 -41q35 -61 92 -94t114 -33q53 0 99.5 28.5t64.5 83.5q23 61 23 248q0 61 -1 92t-4 78t-11.5 70.5t-21.5 50t-37 37t-54 10.5q-145 0 -228 -119q-14 -20 -41 -20q-23 0 -33 9t-12 20.5 t-2 37.5v590q0 20 1 30.5t8.5 19.5t21.5 9l25 -8q133 -57 272 -57t272 55q16 10 27 10q29 0 29 -36q0 -23 -31 -67t-84 -94t-141 -86t-185 -36q-66 0 -106 10v-258q92 63 215 64q184 0 298 -117t114 -307q0 -201 -132.5 -319t-336.5 -118q-158 0 -253.5 108t-95.5 241z" />
<glyph unicode="6" d="M86 647q0 164 39 293t96.5 201.5t133 120t140 63.5t126.5 16q135 0 199.5 -77.5t64.5 -176.5q0 -63 -36 -98t-93.5 -35t-92 37t-34.5 90q0 57 35.5 90t83.5 39q-43 51 -123 52q-27 0 -55.5 -8.5t-70.5 -33t-75 -84t-45 -147.5q-14 -98 -14 -233q55 100 174 100 q166 0 281.5 -111.5t115.5 -324.5t-120 -328t-298 -115q-88 0 -159.5 32t-115.5 77t-76 114.5t-47.5 125t-23.5 131t-9 109.5t-1 81zM367 418q0 -195 16 -238q41 -115 131 -114q57 0 93 32.5t44 89.5q6 61 6 240q0 182 -6 236q-6 51 -39.5 84.5t-87.5 33.5q-55 0 -90 -35.5 t-48 -104.5t-16 -112.5t-3 -111.5z" />
<glyph unicode="7" d="M115 864l71 520h97q4 -18 9 -26t26.5 -17.5t64.5 -13.5q72 -8 164 -8h446v-55q0 -16 -18 -39l-279 -379q-113 -152 -112 -615v-108q0 -61 -28 -97t-52.5 -42.5t-48.5 -6.5q-12 0 -26.5 3.5t-41.5 14.5t-43 44t-16 84q0 113 27.5 231.5t61.5 202.5t79 165t63.5 108.5 t30.5 43.5l141 189h-274q-188 0 -199 -16q-25 -31 -47 -183h-96z" />
<glyph unicode="8" d="M86 332q0 125 61.5 200.5t161.5 137.5q-168 111 -168 309q0 154 97.5 258t275.5 104q162 0 264.5 -80.5t102.5 -222.5q0 -160 -176 -278q41 -27 68.5 -48.5t71.5 -67.5t67.5 -111.5t23.5 -145.5q0 -176 -112.5 -293t-315.5 -117q-184 0 -303 93.5t-119 261.5zM262 334 q0 -119 65.5 -193.5t186.5 -74.5q106 0 176 54t70 152q0 49 -23.5 90t-48 59.5t-76.5 53.5l-217 137q-133 -110 -133 -278zM295 1102q0 -78 84 -131l242 -156q106 84 106 223q0 94 -55.5 159t-163.5 65q-90 0 -151.5 -41t-61.5 -119z" />
<glyph unicode="9" d="M86 901q0 201 121 320q121 121 307 120q86 0 155.5 -30.5t112.5 -75.5t75 -114.5t46.5 -125t22.5 -130t9 -108.5t1 -81q0 -166 -36 -295t-91 -203t-127 -121t-133.5 -63.5t-122.5 -16.5q-139 0 -214 74t-75 180q0 63 36 98.5t93.5 35.5t92 -37t34.5 -90q0 -51 -29.5 -85 t-76.5 -42q49 -45 135 -45q113 0 178 108q41 74 51 232l6 159q-53 -100 -174 -100q-168 0 -282.5 112.5t-114.5 323.5zM365 891q0 -182 6 -236q6 -49 38.5 -82.5t88.5 -33.5q94 0 126.5 101t32.5 273q0 184 -14 228q-39 121 -125 121q-63 0 -98 -35t-43 -76 q-12 -55 -12 -260z" />
<glyph unicode=":" horiz-adv-x="567" d="M125 159.5q0 65.5 47 112.5t112.5 47t112.5 -47t47 -112.5t-47 -112.5t-112.5 -47t-112.5 47t-47 112.5zM125 749.5q0 65.5 47 112.5t112.5 47t112.5 -47t47 -112.5t-47 -112.5t-112.5 -47t-112.5 47t-47 112.5z" />
<glyph unicode=";" horiz-adv-x="569" d="M123 752q0 70 49 114.5t111 44.5q63 0 111 -46t48 -113q0 -61 -46 -110.5t-113 -49.5q-63 0 -111.5 46t-48.5 114zM125 160q0 68 44 113.5t114 45.5q86 0 135 -73.5t49 -182.5q0 -125 -53.5 -238.5t-106.5 -167.5t-74 -54q-12 0 -25 13t-13 28q0 12 24 34 q160 141 172 359q-37 -37 -106 -37q-74 0 -117 47t-43 113z" />
<glyph unicode="&#x3c;" horiz-adv-x="1593" d="M172 512q0 10 6 18.5t12.5 12.5t19.5 11t15 9l1116 594q29 14 41.5 14t23.5 -10t11 -24q0 -23 -35 -41l-1095 -584q25 -12 157 -84l904 -481q61 -33 67 -47q2 -6 2 -13q0 -14 -10 -25.5t-25 -11.5q-12 0 -53 21l-1116 594q-41 22 -41 47z" />
<glyph unicode="=" horiz-adv-x="1593" d="M115 285q0 37 59 37h1241q59 0 60 -37q0 -39 -52 -39h-1251q-57 0 -57 39zM115 739q0 37 59 37h1241q59 0 59.5 -37t-51.5 -37h-1251q-57 0 -57 37z" />
<glyph unicode="&#x3e;" horiz-adv-x="1593" d="M174 -113q0 16 13.5 27.5t54.5 32.5l1063 565q-106 53 -158 82l-905 483q-31 16 -42.5 22.5t-18.5 15.5t-7 22q0 14 10.5 24t24.5 10q12 0 53 -20l1116 -594q39 -23 39 -45q0 -8 -3 -15.5t-10 -13.5t-11 -9t-14.5 -8t-12.5 -7l-1116 -594q-29 -14 -41 -14.5t-23.5 11 t-11.5 25.5z" />
<glyph unicode="?" horiz-adv-x="966" d="M115 1174q0 104 93 182t259 78q29 0 52.5 -2t74.5 -8.5t90 -24t80 -44t63.5 -74.5t22.5 -112q0 -127 -107 -198q-240 -164 -239 -387v-60q0 -41 -7.5 -51t-41.5 -10q-25 0 -34 5t-11 14.5t-2 35.5v84q0 209 135 410q27 37 36 67.5t9 106.5q0 53 -2 76.5t-14.5 51t-40 37 t-76.5 9.5q-111 0 -183 -64q43 -12 71 -43.5t28 -81.5q0 -59 -38 -94t-91 -35q-47 0 -87 32t-40 100zM295 159.5q0 65.5 47 112.5t112.5 47t112.5 -47t47 -112.5t-47 -112.5t-112.5 -47t-112.5 47t-47 112.5z" />
<glyph unicode="@" horiz-adv-x="1591" d="M115 711q0 336 190.5 529.5t489.5 193.5q293 0 487.5 -189.5t194.5 -542.5q0 -217 -55.5 -328.5t-182.5 -111.5q-160 0 -233 82q-92 -82 -213 -82q-170 0 -288 117t-118 332t118 331.5t288 116.5q190 0 280 -172h70q45 0 53 -8t8 -51v-475q0 -117 53 -117q41 0 68 28.5 t38 84t14 105.5t3 126q0 317 -151 494q-160 186 -434 186q-252 0 -418 -170t-166 -479q0 -299 160.5 -474.5t429.5 -175.5q254 0 506 115q27 14 63 14h49q57 0 58 -28q0 -6 -2 -15l-5 -6q-139 -76 -352 -118q-164 -35 -315 -35q-317 0 -502.5 199.5t-185.5 523.5zM621 710.5 q0 -182.5 51 -278.5t127 -96q96 0 172 96v496q0 37 6 51q-72 106 -178 106q-76 0 -127 -96t-51 -278.5z" />
<glyph unicode="A" horiz-adv-x="1546" d="M72 0v96q78 0 118 4q43 4 53.5 11.5t18.5 31.5l434 1233q12 37 28.5 45.5t49.5 8.5q23 0 33 -2.5t22.5 -14.5t20.5 -37l450 -1280h175v-96q-74 6 -308 6q-260 0 -333 -6v96h170l-97 277h-448l-80 -228q-8 -25 -8 -24q0 -25 159 -25v-96q-147 6 -241 6q-39 0 -217 -6z M492 469h380l-190 541z" />
<glyph unicode="B" horiz-adv-x="1456" d="M70 0v96h192v1213h-192v96h774q211 0 325.5 -102.5t114.5 -249.5q0 -117 -80 -203t-223 -115q174 -23 266 -121t92 -233q0 -160 -114.5 -270.5t-327.5 -110.5h-827zM530 96h291q117 0 172 92q45 76 45 197q0 131 -43 213q-47 96 -153 96h-312v-598zM530 768h240 q117 0 170 80t53 205q0 256 -176 256h-287v-541z" />
<glyph unicode="C" horiz-adv-x="1478" d="M115 702q0 338 203.5 531.5t515.5 193.5q188 0 333 -127l119 109q20 18 39 18q25 0 31 -11t6 -46v-440q0 -41 -8 -49.5t-47 -8.5q-20 0 -28.5 1t-16 8.5t-9.5 23.5q-31 211 -138 318.5t-243 107.5q-227 0 -348 -168q-45 -61 -67.5 -154.5t-25.5 -152.5t-3 -154 q0 -156 16.5 -256t67.5 -184q55 -90 153.5 -139t211.5 -49q145 0 261.5 104.5t127.5 294.5q2 25 12 30t35 5q29 0 39 -7t10 -36q0 -180 -145.5 -334t-380.5 -154q-317 0 -519 194.5t-202 530.5z" />
<glyph unicode="D" horiz-adv-x="1568" d="M70 0v96h192v1213h-192v96h761q266 0 444.5 -186.5t178.5 -528.5q0 -328 -177 -509t-446 -181h-761zM541 96h207q240 0 339 174q66 121 66 420q0 317 -66 434q-100 184 -342 185h-204v-1213z" />
<glyph unicode="E" horiz-adv-x="1341" d="M70 0v96h192v1200h-192v97h1093l64 -494h-97q-12 86 -20 131t-32.5 105.5t-61.5 89t-102.5 50t-157.5 21.5h-203v-526h45q127 0 161 54.5t34 185.5h96v-576h-96q0 68 -4.5 102.5t-22.5 71.5t-59 51.5t-109 14.5h-45v-578h211q84 0 146.5 14.5t105.5 48.5t70.5 68.5t48 97 t31 108.5t22.5 128h96l-94 -561h-1120z" />
<glyph unicode="F" horiz-adv-x="1284" d="M70 0v96h192v1200h-192v97h1065l63 -494h-96q-8 61 -13.5 94t-17.5 82t-26.5 76t-42 59.5t-62.5 48t-86 26.5t-117 11h-184v-551h35q127 0 159.5 53.5t32.5 186.5h97v-575h-97q0 133 -32.5 186t-159.5 53h-35v-553h242v-96q-84 6 -379 6q-274 0 -346 -6z" />
<glyph unicode="G" horiz-adv-x="1609" d="M115 702q0 336 202.5 530.5t518.5 194.5q190 0 333 -127l119 109q20 18 39 18q25 0 31 -11t6 -46v-440q0 -41 -8 -49.5t-47 -8.5q-20 0 -28.5 1t-16 8.5t-9.5 23.5q-31 213 -139 319.5t-242 106.5q-242 0 -364 -190q-82 -127 -82 -439q0 -305 84 -440q66 -102 168 -145 t199 -43q39 0 77.5 11t77.5 57t39 120v207h-256v96q90 -6 383 -6q229 0 305 6v-96h-141v-412q0 -57 -29 -57q-14 0 -86.5 36t-111.5 70q-33 -47 -109 -88t-192 -41q-313 0 -517 193.5t-204 531.5z" />
<glyph unicode="H" horiz-adv-x="1603" d="M70 0v96h192v1213h-192v96q72 -6 338 -6t337 6v-96h-192v-531h496v531h-193v96q72 -6 338 -6t338 6v-96h-193v-1213h193v-96q-72 6 -338 6t-338 -6v96h193v586h-496v-586h192v-96q-72 6 -337.5 6t-337.5 -6z" />
<glyph unicode="I" horiz-adv-x="813" d="M57 0v96h203v1213h-203v96q74 -6 348.5 -6t348.5 6v-96h-203v-1213h203v-96q-74 6 -348.5 6t-348.5 -6z" />
<glyph unicode="J" horiz-adv-x="1056" d="M0 233q0 76 47 117t111 41q59 0 107 -41t48 -117q0 -45 -22.5 -80.5t-42 -49t-37.5 -19.5q63 -33 139 -33q72 0 119 60.5t47 189.5v1008h-252v96q84 -6 375 -6q225 0 301 6v-96h-145v-1004q0 -154 -121 -241t-314 -87q-158 0 -259 71.5t-101 184.5z" />
<glyph unicode="K" horiz-adv-x="1603" d="M70 0v96h192v1213h-192v96q72 -6 338 -6t337 6v-96h-192v-629l594 586q4 4 18 22q-51 20 -131 21v96q76 -6 266 -6q96 0 189 6v-96q-117 0 -148.5 -10.5t-76.5 -53.5l-385 -379l467 -731q10 -16 18 -23.5t32.5 -11.5t73.5 -4h48v-96q-88 6 -275 6q-254 0 -325 -6v96 q131 0 131 23q0 6 -13 22l-344 541l-139 -137v-449h192v-96q-72 6 -337.5 6t-337.5 -6z" />
<glyph unicode="L" horiz-adv-x="1228" d="M70 0v96h192v1213h-192v96q72 -6 346 -6q295 0 379 6v-96h-242v-1213h135q74 0 132.5 22.5t94 66.5t61 87t39 104.5t19.5 97.5t10 87h97l-64 -561h-1007z" />
<glyph unicode="M" horiz-adv-x="1945" d="M70 0v96h41q57 0 102 6q37 4 43 11.5t6 42.5v1153h-192v96h428q41 0 55 -9.5t29 -43.5l391 -1028l391 1030q12 35 28.5 43t55.5 8h426v-96h-193v-1213h193v-96q-72 6 -322 6q-248 0 -319 -6v96h192v1192h-2l-471 -1237q-8 -18 -11 -25.5t-16.5 -16.5t-31.5 -9 q-29 0 -40 12.5t-22 38.5l-458 1204h-2v-1099q0 -35 7 -42.5t44 -11.5q43 -6 100 -6h41v-96q-221 6 -248 6q-18 0 -245 -6z" />
<glyph unicode="N" horiz-adv-x="1603" d="M70 0v96h41q57 0 102 6q37 4 43 11.5t6 42.5v1153h-192v96h426q33 0 44 -4t27 -27l664 -913v788q0 35 -7 42t-44 12q-43 6 -101 6h-41v96q221 -6 248 -6q18 0 246 6v-96h-41q-57 0 -102 -6q-37 -4 -43.5 -11.5t-6.5 -42.5v-1183q0 -41 -8 -53.5t-47 -12.5q-37 0 -55 27 l-858 1179v-1050q0 -35 7 -42.5t44 -11.5q43 -6 100 -6h41v-96q-221 6 -248 6q-18 0 -245 -6z" />
<glyph unicode="O" horiz-adv-x="1536" d="M115 694q0 344 183 538.5t470 194.5q281 0 466 -192.5t185 -540.5q0 -336 -182 -526.5t-471 -190.5q-281 0 -466 188.5t-185 528.5zM428 723q0 -309 66 -457q41 -92 112.5 -147.5t161.5 -55.5q86 0 162 57.5t114 153.5q41 100 51.5 198.5t10.5 250.5q0 276 -55 410 q-43 102 -119 157.5t-166 55.5q-80 0 -157 -49.5t-124 -155.5q-57 -133 -57 -418z" />
<glyph unicode="P" horiz-adv-x="1398" d="M70 0v96h192v1213h-192v96h735q221 0 349 -112.5t128 -286.5q0 -178 -131 -283t-328 -105h-270v-522h192v-96q-72 6 -337.5 6t-337.5 -6zM541 702h180q72 0 121 16.5t73.5 38t37 68.5t14.5 80t2 101q0 70 -2 102.5t-14.5 79.5t-37 67.5t-73.5 37t-121 16.5h-180v-607z " />
<glyph unicode="Q" horiz-adv-x="1536" d="M115 694q0 344 183 538.5t470 194.5q281 0 466 -192.5t185 -540.5q0 -86 -14 -169t-51 -178t-114 -177t-187 -133q31 -55 63.5 -84t50 -33t45.5 -4q133 0 146 78q6 43 37 43q37 0 37 -57q0 -41 -8.5 -92.5t-31 -122t-76.5 -116.5t-132 -46q-57 0 -98.5 22.5t-66 52 t-41.5 91t-25.5 103.5t-18.5 124q-55 -18 -166 -19q-287 0 -470 189.5t-183 527.5zM416 696q0 -98 5 -164.5t20.5 -149.5t52 -148.5t96.5 -110.5q-2 8 -2 27q0 70 52 118.5t128 48.5q129 0 217 -157q61 63 93 173.5t36 181.5t4 181q0 276 -53 414q-47 119 -128 177.5 t-171 58.5q-82 0 -167 -56.5t-136 -195.5q-47 -134 -47 -398zM662 150q0 -16 5 -33t30.5 -37.5t70.5 -20.5q80 0 145 41q-33 143 -143 144q-49 0 -78.5 -28.5t-29.5 -65.5z" />
<glyph unicode="R" horiz-adv-x="1554" d="M70 0v96h192v1213h-192v96h682q254 0 400 -108.5t146 -272.5q0 -111 -82.5 -202t-228.5 -128q180 -78 211 -245q2 -4 21 -152q8 -63 14 -95t19.5 -74t36 -59.5t57.5 -17.5q43 0 71.5 37t34.5 105q2 27 11.5 37t35.5 10q49 0 49 -47q0 -16 -7 -44t-25.5 -71t-66.5 -72 t-118 -29q-340 0 -407 187q-14 45 -15 182q0 109 -6 153t-35 89q-49 78 -151 78h-176v-570h192v-96q-72 6 -331.5 6t-331.5 -6zM541 739h164q82 0 137 17.5t82.5 40t42 67.5t16.5 74t2 86q0 72 -5 108.5t-28.5 85t-84 70t-158.5 21.5h-168v-570z" />
<glyph unicode="S" horiz-adv-x="1136" d="M115 35v373q0 39 7 49t42 10q16 0 25.5 -2t14.5 -8t6 -13.5t1 -23.5q4 -100 47 -173t107.5 -109t126 -50t124.5 -14q113 0 160 72.5t47 166.5q0 170 -135 232q-39 12 -139 35q-156 39 -217.5 65.5t-118.5 93.5q-98 121 -98 279q0 178 106.5 293.5t292.5 115.5 q172 0 293 -102l55 55q37 35 45 41t23 6q25 0 31 -11t6 -46v-375q0 -37 -7.5 -47t-41.5 -10q-25 0 -35.5 6t-14.5 29q-49 366 -350 366h-2q-104 0 -153.5 -64.5t-49.5 -150.5q0 -72 37 -128t92 -76q14 -4 150 -39q106 -27 151 -41.5t96.5 -47t92.5 -90.5q90 -123 90 -286 q0 -190 -105.5 -314.5t-298.5 -124.5q-205 0 -342 105l-57 -57q-37 -35 -45 -41.5t-22 -6.5q-25 0 -31 11.5t-6 46.5z" />
<glyph unicode="T" horiz-adv-x="1421" d="M74 889l43 493h1186l43 -493h-97q-6 88 -12 131t-24.5 104.5t-47 90t-82 50t-129.5 21.5h-98v-1190h274v-96q-98 6 -419.5 6t-419.5 -6v96h274v1190h-100q-55 0 -98 -11t-72 -26.5t-50.5 -49.5t-33.5 -58.5t-20.5 -75.5t-11.5 -82t-9 -94h-96z" />
<glyph unicode="U" horiz-adv-x="1574" d="M70 1309v96q72 -6 338 -6t337 6v-96h-192v-879q0 -356 283 -356q150 0 258 93t108 304v778q0 35 -7 42t-44 12q-43 6 -100 6h-41v96q221 -6 247 -6q18 0 246 6v-96h-41q-57 0 -102 -6q-37 -4 -43 -11.5t-6 -42.5v-784q0 -211 -128 -349.5t-356 -138.5 q-260 0 -412.5 138.5t-152.5 353.5v840h-192z" />
<glyph unicode="V" horiz-adv-x="1546" d="M45 1309v96q74 -6 301 -6q258 0 332 6v-96h-168l354 -932l346 911q-51 20 -157 21v96q172 -6 239.5 -6t208.5 6v-96q-80 0 -117.5 -5.5t-47 -13.5t-17.5 -28l-469 -1227q-8 -20 -14.5 -29.5t-20.5 -15.5t-43 -6q-39 0 -52 11t-24 40l-485 1274h-166z" />
<glyph unicode="W" horiz-adv-x="2115" d="M43 1309v96q80 -6 291 -6q256 0 330 6v-96h-172l301 -889l213 635l-86 254h-154v96q80 -6 291 -6q256 0 329 6v-96h-172l302 -889l290 866q-57 23 -182 23v96q84 -6 250 -6q96 0 197 6v-96q-106 0 -133 -9.5t-37 -37.5l-414 -1227q-8 -27 -22.5 -39t-45.5 -12 q-35 0 -47 11t-22 42l-293 866l-293 -868q-18 -51 -70 -51q-33 0 -46 11t-21 40l-430 1274h-154z" />
<glyph unicode="X" horiz-adv-x="1546" d="M59 0v96h50q129 0 180 21l358 557l-387 635h-174v96q74 -6 303 -6q262 0 336 6v-96h-150l234 -385l217 338l14 24q-63 23 -172 23v96q74 -6 283 -6q10 0 250 6v-96h-49q-61 0 -111 -6q-45 -4 -56 -10.5t-28 -28.5l-285 -443l443 -725h174v-96q-76 6 -303 6 q-262 0 -336 -6v96h149l-288 475l-291 -452q61 -23 172 -23v-96q-76 6 -283 6q-10 0 -250 -6z" />
<glyph unicode="Y" horiz-adv-x="1546" d="M33 1309v96q74 -6 307 -6q268 0 342 6v-96h-154l342 -600l332 579q-49 20 -141 21v96q104 -6 244 -6q68 0 208 6v-96q-84 0 -125.5 -5.5t-52 -12.5t-20.5 -25l-404 -705v-465h195v-96q-72 6 -334 6q-260 0 -332 -6v96h193v465l-426 748h-174z" />
<glyph unicode="Z" horiz-adv-x="1251" d="M115 53q0 29 14 53l684 1203h-192q-84 0 -149.5 -18.5t-105.5 -55.5t-66 -73t-38 -89t-17 -84t-7 -78h-97l25 494h903q27 0 38 -2t19.5 -13.5t8.5 -36t-15 -48.5l-682 -1201h205q61 0 113.5 10.5t90.5 26t68.5 43t50 51t35 64.5t23.5 67.5t14 73.5t8.5 71t4.5 71h95 l-36 -582h-930q-27 0 -38 2t-19 13t-8 38z" />
<glyph unicode="[" horiz-adv-x="573" d="M172 -512v2048h356v-74h-133v-1900h133v-74h-356z" />
<glyph unicode="\" d="M115 1497q0 14 11 24.5t24 10.5q8 0 15 -4t12 -8t10.5 -14.5t7.5 -16.5t6 -18.5t6 -16.5l684 -1872q14 -43 14 -57t-10 -24.5t-23 -10.5q-31 0 -47 49l-702 1925q-8 21 -8 33z" />
<glyph unicode="]" horiz-adv-x="573" d="M43 -438h133v1900h-133v74h356v-2048h-356v74z" />
<glyph unicode="^" horiz-adv-x="1251" d="M229 1028l394 266l395 -266l-51 -84l-344 182l-342 -182z" />
<glyph unicode="_" horiz-adv-x="1593" d="M172 -569q0 12 4 24.5t23.5 25.5t52.5 13h1091q43 -2 59.5 -22.5t16.5 -40.5q0 -61 -82 -62h-1087q-78 1 -78 62z" />
<glyph unicode="`" d="M199 1231q0 47 35.5 89t87.5 42q39 0 69.5 -27.5t134.5 -156.5q43 -51 70 -84l-57 -80q-258 109 -287 127q-53 35 -53 90z" />
<glyph unicode="a" horiz-adv-x="995" d="M57 223q0 152 162 234t402 86v73q0 109 -44.5 173.5t-132.5 64.5q-55 0 -120 -12q47 -47 47 -103q0 -61 -39 -95t-90 -34q-47 0 -87 34t-40 95q0 51 29.5 90t67.5 57t92 28t84 12t63 2q188 0 295.5 -84t107.5 -230v-442q0 -27 3 -39t25.5 -23.5t67.5 -13.5q14 -2 21.5 -4 t14.5 -13t7 -30q0 -33 -14 -41t-51 -8h-86q-66 0 -108 16.5t-56 45t-18.5 47t-4.5 43.5q-76 -164 -252 -164q-133 0 -239.5 59t-106.5 176zM297 223.5q0 -63.5 36 -113t95 -49.5q63 0 128 52.5t65 169.5v194q-29 -2 -55.5 -6t-80 -20.5t-91.5 -41t-67.5 -73.5t-29.5 -112.5z " />
<glyph unicode="b" horiz-adv-x="1136" d="M33 1309v96l362 16v-585q109 86 248 86q180 0 303 -122t123 -345q0 -219 -128 -343t-323 -124q-147 0 -247 108l-99 -96h-98v1229q0 57 -21.5 68.5t-119.5 11.5zM408 182q80 -121 194 -121q55 0 103.5 33t70.5 86q31 78 31 277q0 197 -25 264q-18 59 -61 93t-98 34 q-125 0 -215 -117v-549z" />
<glyph unicode="c" horiz-adv-x="909" d="M68 455q0 215 121.5 344t324.5 129q133 0 223 -47t90 -142q0 -61 -38.5 -95t-90.5 -34q-47 0 -87 34t-40 95q0 59 41 97q-55 10 -92 10q-45 0 -79.5 -18.5t-54 -54.5t-32 -68.5t-17.5 -85t-6 -81t-1 -73.5q0 -186 39 -270q57 -125 174 -125q152 0 211 172q6 18 14 22 t33 4q49 0 49 -28q0 -10 -8 -35t-33 -64t-60.5 -71.5t-99 -57t-141.5 -24.5q-188 0 -314 124t-126 343z" />
<glyph unicode="d" horiz-adv-x="1136" d="M68 455q0 219 128 343t320 124q125 0 225 -78v385q0 57 -21.5 68.5t-119.5 11.5v96l363 16v-1245q0 -57 21.5 -68.5t119.5 -11.5v-96l-375 -12v84q-102 -84 -233 -84q-182 0 -305 122t-123 345zM330 453q0 -193 22 -263q45 -129 162 -129q131 0 215 132v546 q-78 109 -192 109q-63 0 -111.5 -36t-71.5 -97q-24 -72 -24 -262z" />
<glyph unicode="e" horiz-adv-x="954" d="M57 461q0 213 124 340t325 127q113 0 193.5 -39t121.5 -104.5t58.5 -134t17.5 -144.5q0 -41 -12.5 -50.5t-53.5 -9.5h-512q0 -43 1.5 -70.5t7.5 -78.5t20 -85t39 -70t66 -54t96 -18q72 0 144.5 41t105.5 127q8 25 16 31.5t33 6.5q49 0 49 -36q0 -20 -19.5 -58.5 t-59.5 -83.5t-115.5 -77.5t-172.5 -32.5q-207 0 -340 128t-133 345zM319 514h383q0 39 -4 77t-19 107.5t-59.5 112.5t-111.5 43q-183 0 -189 -340z" />
<glyph unicode="f" horiz-adv-x="624" d="M55 0v96h142v717h-119v96h119v207q0 162 118.5 240t280.5 78q104 0 161.5 -53.5t57.5 -125.5q0 -59 -38 -93t-89 -34q-47 0 -86 33t-39 94q0 68 49 103q-8 2 -22.5 2t-28.5 -2t-45 -14.5t-53.5 -36t-39.5 -72.5t-17 -117v-209h202v-96h-190v-717h178v-96q-74 6 -283 6 q-43 0 -258 -6z" />
<glyph unicode="g" d="M53 -154q0 121 146 177q-84 70 -84 190q0 98 69 188q-98 78 -98 217q0 129 96.5 216.5t272.5 87.5q147 0 241 -66q84 76 183 76q57 0 85.5 -38t28.5 -81q0 -37 -24.5 -62.5t-63.5 -25.5t-63.5 24.5t-24.5 63.5q0 18 6 37q-47 -14 -75 -33q76 -84 75 -199q0 -127 -95 -215 t-273 -88q-127 0 -222 52q-18 -18 -18 -71.5t32 -87.5t75 -38h118q80 0 123 -2t117 -9t116 -27.5t87 -54.5t65.5 -90.5t20.5 -131.5q0 -115 -116 -191t-343 -76q-244 0 -350.5 81t-106.5 177zM229 -150q0 -80 70 -134t213 -54q145 0 213 56.5t68 127.5q0 127 -246 127h-193 q-125 0 -125 -123zM313 618q0 -53 3 -81.5t14.5 -68.5t43.5 -59.5t81 -19.5q41 0 68.5 15.5t42 34t21.5 55t8 59t1 65.5q0 53 -3 82t-14.5 69t-43 59.5t-80.5 19.5q-41 0 -69 -15.5t-42 -34t-21.5 -55t-8.5 -59.5t-1 -66z" />
<glyph unicode="h" horiz-adv-x="1136" d="M49 0v96h141v1133q0 57 -21.5 68.5t-119.5 11.5v96l363 16v-686h2q102 186 301 187q158 0 217 -78t59 -211v-537h142v-96q-123 6 -256 6q-31 0 -252 -6v96h133v561q0 84 -13.5 129t-26.5 53.5t-34 8.5q-92 0 -176 -84t-84 -240v-428h141v-96q-172 6 -258 6t-258 -6z" />
<glyph unicode="i" horiz-adv-x="567" d="M53 0v96h142v633q0 57 -20.5 68.5t-115.5 11.5v96l357 17v-826h127v-96q-221 6 -240 6q-60 0 -250 -6zM117 1263.5q0 65.5 47 112.5t112.5 47t112.5 -46t47 -113.5t-47 -113.5t-112.5 -46t-112.5 47t-47 112.5z" />
<glyph unicode="j" horiz-adv-x="624" d="M-127 -223q0 55 36 92t93 37q55 0 91 -37t36 -90q0 -70 -53 -105q31 -10 65 -10q41 0 70 25.5t41 67.5t17 78t5 75v817q0 27 -2 39t-12 23.5t-31 15.5q-31 4 -110 4v96l377 17v-1008q0 -150 -105.5 -237t-245.5 -87q-115 0 -193.5 50.5t-78.5 136.5zM176 1263.5 q0 65.5 47 112.5t112.5 47t113 -47t47.5 -112.5t-47.5 -112.5t-113 -47t-112.5 47t-47 112.5z" />
<glyph unicode="k" horiz-adv-x="1079" d="M33 0v96h141v1133q0 57 -21.5 68.5t-119.5 11.5v96l362 16v-913l285 262q16 8 16 21q0 22 -81 22h-7v96q80 -6 234 -6q111 0 157 6v-96q-63 0 -98 -5t-47 -12.5t-29 -21.5l-219 -203l297 -436q14 -23 22.5 -29t31 -8t90.5 -2v-96q-135 6 -207 6q-55 0 -246 -6v96 q76 0 76 21q0 8 -89 140t-122 177l-74 -67v-271h141v-96q-221 6 -247 6q-19 0 -246 -6z" />
<glyph unicode="l" horiz-adv-x="567" d="M53 0v96h142v1133q0 57 -21.5 68.5t-120.5 11.5v96l363 16v-1325h141v-96q-209 6 -252 6q-55 0 -252 -6z" />
<glyph unicode="m" horiz-adv-x="1705" d="M49 0v96h141v633q0 57 -21.5 68.5t-119.5 11.5v96l352 17v-207h2q100 207 312 207q227 0 268 -187q96 186 299 187q158 0 217.5 -78t59.5 -211v-537h141v-96q-123 6 -256 6q-31 0 -252 -6v96h133v561q0 84 -13.5 129t-26.5 53.5t-34 8.5q-92 0 -176 -84t-84 -240v-428 h142v-96q-123 6 -256 6q-31 0 -252 -6v96h133v561q0 84 -13.5 129t-26.5 53.5t-34 8.5q-92 0 -176 -84t-84 -240v-428h141v-96q-172 6 -258 6t-258 -6z" />
<glyph unicode="n" horiz-adv-x="1136" d="M49 0v96h141v633q0 57 -21.5 68.5t-119.5 11.5v96l352 17v-207h2q100 207 312 207q158 0 217 -78t59 -211v-537h142v-96q-123 6 -256 6q-31 0 -252 -6v96h133v561q0 84 -13.5 129t-26.5 53.5t-34 8.5q-92 0 -176 -84t-84 -240v-428h141v-96q-172 6 -258 6t-258 -6z" />
<glyph unicode="o" d="M57 449q0 219 126 349t327 130q205 0 330 -131t125 -348q0 -213 -125 -337t-330 -124q-201 0 -327 123t-126 338zM319 469q0 -197 17 -264q16 -63 65.5 -99t110.5 -36q57 0 106.5 34.5t63.5 92.5q20 70 20 272q0 193 -18 260q-14 51 -62.5 88t-111.5 37q-59 0 -108.5 -34 t-63.5 -91q-19 -65 -19 -260z" />
<glyph unicode="p" horiz-adv-x="1136" d="M33 -301h141v1042q0 25 -1 35t-10 18.5t-28 10.5q-23 4 -102 4v96l362 17v-88q113 88 254 88q180 0 300 -124t120 -341q0 -221 -129 -345t-322 -124q-119 0 -210 73v-362h141v-96q-172 6 -258 6t-258 -6v96zM408 182q76 -121 192 -121q86 0 146.5 98.5t60.5 297.5 q0 182 -52.5 282.5t-133.5 100.5q-121 0 -213 -115v-543z" />
<glyph unicode="q" horiz-adv-x="1079" d="M68 455q0 221 129 344t315 123q164 0 260 -144l107 144h84v-1223h141v-96q-172 6 -258 6t-258 -6v96h141v379q-102 -90 -233 -90q-180 0 -304 122t-124 345zM330 453q0 -184 52 -288t134 -104q88 0 158 70q68 72 67 139v324q0 82 -57 164t-147 82q-84 0 -145.5 -94 t-61.5 -293z" />
<glyph unicode="r" horiz-adv-x="874" d="M33 0v96h141v633q0 57 -21.5 68.5t-119.5 11.5v96l340 17v-187h2q61 186 225 187q84 0 151.5 -44t67.5 -124q0 -57 -38 -91t-87 -34t-87 32.5t-38 92.5q0 55 39 94q-66 0 -109.5 -37t-65 -99.5t-30 -122t-8.5 -126.5v-367h178v-96q-74 6 -282 6q-43 0 -258 -6z" />
<glyph unicode="s" horiz-adv-x="806" d="M68 45v223q0 39 7 49.5t42 10.5q29 0 36 -6.5t13 -28.5q29 -113 84 -172.5t158 -59.5q184 0 184 152q0 59 -39 97t-74 48.5t-94 22.5t-91 20.5t-74 29t-73 50.5q-79 79 -79 176q0 80 29.5 135.5t79.5 83t103.5 40t114.5 12.5q106 0 170 -37q68 37 84 37q25 0 31 -11.5 t6 -46.5v-163q0 -39 -7 -48.5t-42 -9.5q-29 0 -37 7.5t-10 31.5q-2 29 -7 48.5t-22.5 53t-59.5 53t-106 19.5q-182 0 -182 -127q0 -35 16.5 -60.5t54.5 -41t60.5 -22.5t75.5 -17q55 -10 83.5 -17.5t69.5 -29t72 -51.5q92 -86 92 -211q0 -129 -76.5 -213t-252.5 -84 q-117 0 -199 57q-33 -20 -49 -33q-36 -24 -55 -24h-1q-25 0 -30.5 12t-5.5 45z" />
<glyph unicode="t" horiz-adv-x="798" d="M39 813v74q139 6 201.5 130t64.5 283h96v-391h248v-96h-248v-571q0 -172 93 -172q43 0 67.5 49t24.5 133v110h96v-112q0 -104 -53.5 -183t-161.5 -79q-299 0 -299 264v561h-129z" />
<glyph unicode="u" horiz-adv-x="1136" d="M49 809v96l375 17v-707q0 -92 20.5 -123t110.5 -31q94 0 148.5 78t54.5 195v395q0 57 -21.5 68.5t-120.5 11.5v96l375 17v-746q0 -57 21.5 -68.5t120.5 -11.5v-96l-363 -12v139h-2q-78 -139 -242 -139q-162 0 -249 58t-87 204v479q0 57 -21.5 68.5t-119.5 11.5z" />
<glyph unicode="v" horiz-adv-x="1079" d="M45 813v96q209 -6 229 -6q74 0 252 6v-96h-116l196 -512l178 463q8 20 9 24q0 25 -105 25v96q86 -6 184 -6q86 0 162 6v-96q-88 0 -110.5 -9t-32.5 -36l-279 -721q-8 -20 -13 -29.5t-19.5 -17.5t-38.5 -8q-29 0 -45.5 10t-30.5 47l-293 764h-127z" />
<glyph unicode="w" horiz-adv-x="1478" d="M43 813v96q178 -6 217 -6q51 0 223 6v-96h-86l170 -485l111 317q8 16 8 25q0 4 -49 143h-94v96q92 -6 184 -6q45 0 229 6v-96h-120l188 -537l172 486l8 31q-45 20 -125 20v96q147 -6 197 -6q84 0 158 6v-96q-82 0 -103.5 -9t-32.5 -38l-251 -721q-18 -53 -70 -53 q-29 0 -44 9t-28 44l-168 479l-168 -481q-6 -18 -11 -27.5t-19.5 -16.5t-38.5 -7q-33 0 -46.5 12t-23.5 43l-268 766h-119z" />
<glyph unicode="x" horiz-adv-x="1079" d="M37 0v96q61 0 89 1t58.5 10.5t44.5 27.5l217 297l-262 381h-139v96q111 -6 219 -6q63 0 242 6v-96h-94l153 -221l144 199q-35 22 -92 22h-5v96q172 -6 211 -6q88 0 187 6v-96q-78 0 -119 -5t-52.5 -12.5t-23.5 -23.5l-192 -262l284 -414h140v-96q-209 6 -220 6 q-59 0 -243 -6v96h94l-174 252l-166 -229q33 -20 94 -23v-96q-129 6 -209 6q-94 0 -186 -6z" />
<glyph unicode="y" horiz-adv-x="1079" d="M39 -221q0 57 35 88t82 31q51 0 84.5 -33t33.5 -84q0 -82 -75 -113q16 -4 32 -4q98 0 166 115q27 47 90 221l-315 813h-127v96q209 -6 229 -6q74 0 252 6v-96h-114q51 -150 196 -506l174 455l4 12l7 14q0 25 -107 25v96q80 -6 186 -6q86 0 162 6v-96q-90 0 -112.5 -9 t-34.5 -40l-363 -936q-35 -90 -112.5 -164t-182.5 -74q-82 0 -136 56.5t-54 132.5z" />
<glyph unicode="z" horiz-adv-x="909" d="M57 45q0 23 17 45l477 746h-109q-154 0 -201.5 -63.5t-58.5 -221.5h-96l25 358h641q25 0 35 -1t20 -11t10 -31q0 -18 -16 -43l-475 -741h112q74 0 125 17.5t80 41t46.5 72.5t23.5 89t12 112h96l-37 -414h-661q-25 0 -36 2t-20.5 12.5t-9.5 30.5z" />
<glyph unicode="{" d="M135 512q0 20 9.5 27.5t39 11.5t41.5 8q63 16 111.5 66.5t56.5 119.5q2 18 2 56v452q0 80 42 139.5t113 88t142.5 42t147.5 13.5q49 0 49 -37q0 -20 -12.5 -28.5t-46 -12.5t-56.5 -12q-145 -49 -145 -205v-450q0 -37 -4 -63t-23.5 -70t-72 -80.5t-134.5 -65.5 q82 -29 133.5 -64.5t70.5 -78.5t24.5 -70t5.5 -66v-448q0 -49 16.5 -89t39 -63.5t53 -39t53 -21.5t45.5 -8q47 -4 51 -27q2 -6 2 -12q0 -37 -47 -37h-2q-170 0 -298 60.5t-145 183.5q-2 16 -2 49v455q0 66 -23.5 114.5t-59.5 72t-64.5 34t-52.5 14.5q-49 6 -56 23 q-4 8 -4 18z" />
<glyph unicode="|" horiz-adv-x="569" d="M221 -428v1872q0 90 61.5 90t61.5 -80v-1874q0 -90 -61.5 -90t-61.5 82z" />
<glyph unicode="}" d="M135 -473q0 20 12.5 27.5t45 11.5t55.5 12q117 39 141 148q6 31 6 61v446q0 37 4 63t23.5 70t72 80.5t134.5 65.5q-82 29 -133.5 64.5t-70.5 78.5t-24.5 70t-5.5 66v448q0 61 -23.5 107.5t-60.5 69t-66.5 32.5t-58.5 12q-2 0 -9 1t-10 1t-9 2t-9.5 4t-7.5 6.5t-5 9.5 t-1 13q0 39 45 39h4q72 0 139.5 -11.5t135 -38t112.5 -76.5t56 -118q2 -16 2 -49v-457q0 -66 23.5 -113.5t59.5 -71t63.5 -34t51.5 -14.5q2 0 10.5 -1t10.5 -1t8 -2l9 -3t8.5 -3t7.5 -5t4 -6.5t3 -8.5t1 -11q0 -20 -8.5 -27.5t-38 -11.5t-43.5 -8q-63 -16 -111.5 -66.5 t-56.5 -119.5q-2 -18 -2 -56v-452q0 -80 -42 -139.5t-113 -88t-141.5 -42t-146.5 -13.5q-51 0 -51 39z" />
<glyph unicode="~" horiz-adv-x="1251" d="M170 1247q10 14 35.5 48t35 45.5t32 32t40 27.5t45 14t62.5 7q59 0 217 -32.5t219 -32.5q96 0 166 65l57 -45q-10 -14 -35.5 -48t-35 -45t-32 -31.5t-39.5 -27.5t-45 -14.5t-63 -7.5q-70 0 -218 33t-218 33q-100 0 -166 -66z" />
<glyph unicode="&#xa1;" horiz-adv-x="624" d="M152 -274q0 12 4 34.5t4 30.5l98 703q4 25 5 30.5t6 18t15.5 15.5t27 3t26.5 -3t15 -13t7 -16.5t4.5 -23t4.5 -24.5l100 -719q4 -25 4 -36q0 -61 -48 -103.5t-112 -42.5q-61 0 -111 40t-50 106zM154 864.5q0 63.5 45 111.5t112 48q70 0 115 -48t45 -111.5t-45 -111.5 t-113 -48q-70 0 -114.5 48t-44.5 111.5z" />
<glyph unicode="&#xa2;" d="M68 457q0 186 114.5 318t335.5 151v190h98v-190q328 -4 328 -185q0 -55 -37 -92t-92 -37q-51 0 -89 35t-38 92q0 53 39 97q-74 8 -111 8v-772q78 6 132.5 33.5t74 57.5t35.5 60.5t25 36.5q14 10 35 10q45 0 45 -28q0 -12 -7.5 -35t-31 -57.5t-59.5 -66.5t-101.5 -58.5 t-147.5 -34.5v-189h-98v189q-207 16 -328.5 141t-121.5 326zM330 469q0 -66 5 -115t22.5 -107.5t58.5 -99.5t102 -61v754q-104 -29 -146 -116t-42 -241v-14z" />
<glyph unicode="&#xa3;" horiz-adv-x="1308" d="M113 104q0 80 73.5 130.5t182.5 50.5q29 0 82 -9v386h-86q-16 0 -26.5 2t-19 13t-8.5 34q0 31 12.5 40t38.5 9h89v284q0 96 28.5 171t71.5 116t99.5 67.5t103.5 35t92 8.5q158 0 252 -116t94 -253q0 -72 -42 -103.5t-87 -31.5q-53 0 -90 36t-37 91q0 47 29.5 87t105.5 42 q-33 82 -91 127t-126 45q-104 0 -143 -90q-27 -59 -27 -205v-311h141q29 0 41.5 -9.5t12.5 -39.5q0 -49 -48 -49h-147v-283q0 -88 -25 -162q225 -82 324 -82q68 0 112 36t54 91q0 2 2 11.5t3 11.5t3 9t5 9t8.5 5t13.5 4t18 1q47 0 47 -45q0 -90 -82 -184t-233 -94 q-66 0 -149 21.5t-142 44t-68 22.5q-10 0 -44.5 -22.5t-98 -44t-143.5 -21.5q-176 -1 -176 114zM244 98q0 -12 14 -23.5t35 -11.5q63 0 119 66q-41 8 -86 8q-82 0 -82 -39z" />
<glyph unicode="&#xa4;" horiz-adv-x="1550" d="M92 -37q0 6 2 13.5t7 15.5t11.5 16t17.5 20.5t21.5 23.5t29 28.5t33.5 33t41 40t46 45.5v2q-123 156 -123 385t123 385v2q-193 190 -203 205q-6 12 -6 28q0 25 17.5 43.5t42.5 18.5q23 0 52 -24.5t105 -102.5q49 -51 80 -82q156 123 385 123h2q227 0 383 -123h2 q164 166 187.5 187.5t46 21.5t42 -18.5t19.5 -43.5q0 -6 -1 -11t-5 -12t-8 -13.5t-14.5 -17.5t-19.5 -21.5t-27.5 -28t-35 -33.5t-44 -44t-54.5 -54q123 -160 123 -385q0 -223 -123 -387q184 -182 199 -203q10 -16 10 -33q0 -23 -17.5 -41t-41.5 -18q-23 0 -42.5 17.5 t-119.5 117.5l-74 74h-2q-156 -123 -387 -123q-223 0 -385 123q-184 -186 -203 -199q-16 -10 -32 -10q-25 0 -42.5 17t-17.5 42zM301 584q0 -217 129 -344t342 -127q221 0 347 129t126 344q0 217 -128 344t-341 127q-219 0 -347 -130t-128 -343z" />
<glyph unicode="&#xa5;" horiz-adv-x="1546" d="M31 1307v98q158 -6 313 -6q168 0 336 6v-98h-152l209 -369h264q23 43 74 129t84 144.5t33 68.5q0 27 -133 27v98q125 -6 250 -6q102 0 202 6v-98q-123 0 -154.5 -10.5t-51.5 -47.5l-179 -311h222q41 0 57 -5t22 -26q6 -27 -14 -35t-49 -8h-281q-45 -84 -86 -153.5 t-55 -93t-22.5 -45t-8.5 -48.5v-41h461q55 0 55 -36.5t-57 -36.5h-459v-312h193v-98q-172 6 -344 6h-10q-135 0 -312 -6v98h193v312h-459q-57 0 -57 36.5t55 36.5h461v41q0 27 -9.5 49.5t-24.5 47t-55 93t-83 150.5h-275q-49 0 -65 21q-6 12 -2 25.5t12 19.5q12 10 66 10 q8 0 28.5 -1t32.5 -1h160l-211 369h-174zM782 864l88 -155l88 155h-176z" />
<glyph unicode="&#xa6;" horiz-adv-x="342" d="M109 258q0 59 32 78q16 8 28.5 8t24 -4t24.5 -23.5t13 -52.5v-694q0 -82 -59 -82q-63 0 -63 80v690zM109 760v686q0 88 61 88t61 -80v-688q0 -86 -61 -86q-12 0 -23.5 4t-24.5 23.5t-13 52.5z" />
<glyph unicode="&#xa7;" horiz-adv-x="972" d="M141 520q0 158 140 262q-139 143 -140 326q0 141 103.5 232.5t242.5 91.5q129 0 221.5 -75t92.5 -177q0 -55 -35 -88t-82 -33t-82 31.5t-35 83.5q0 86 88 114q-78 70 -168 70q-94 0 -148 -78t-54 -158q0 -29 13 -52t45 -42.5t50.5 -30t65.5 -28t55 -21.5 q127 -53 220 -169.5t93 -276.5q0 -156 -139 -260q139 -143 139 -328q0 -141 -102 -232.5t-242 -91.5q-129 0 -221 75t-92 179q0 55 35 88t82 33t80.5 -32.5t33.5 -84.5q0 -84 -88 -114q74 -68 168 -68t148.5 78t54.5 156q0 20 -6 37.5t-20.5 32t-28 25.5t-39 23.5 t-40.5 18.5t-48 19.5t-47 19.5q-127 53 -220.5 169.5t-93.5 274.5zM285 532q0 -53 46 -86.5t137 -70.5t140 -68h2q74 82 74 185q0 55 -46 87.5t-137 68.5t-141 69h-2q-73 -83 -73 -185z" />
<glyph unicode="&#xa8;" d="M152 1245q0 63 46 111.5t113 48.5q66 0 113 -45t47 -114.5t-48 -115t-111.5 -45.5t-111.5 46t-48 114zM551 1245q0 63 45 111.5t113 48.5q63 0 111 -46t48 -114q0 -66 -47 -113t-112.5 -47t-111.5 45t-46 115z" />
<glyph unicode="&#xa9;" horiz-adv-x="2275" d="M113 512q0 475 281.5 761t744.5 286q453 0 737.5 -284t284.5 -763q0 -475 -282 -761t-744 -286q-453 0 -737.5 284t-284.5 763zM236 510q0 -422 246.5 -671t650 -249t653.5 245t250 679q0 424 -247 672t-648 248q-403 0 -654 -246t-251 -678zM567 492q0 233 167 373.5 t427 140.5q135 0 254 -78q119 76 139 76q37 0 37 -50v-301q0 -33 -11 -43t-42 -10q-27 0 -38 6t-14 16.5t-9.5 39t-16.5 55.5q-31 78 -95.5 134t-160.5 56q-45 0 -92 -9t-108.5 -49t-90.5 -108q-33 -76 -32 -252v-26q0 -63 5 -106.5t25.5 -106t72.5 -104.5t136 -60 q47 -10 88 -10q117 0 195 67.5t90 173.5q6 37 23 43q10 4 26 5q47 0 47 -43q0 -129 -117.5 -237t-308.5 -108q-264 0 -430 143t-166 372z" />
<glyph unicode="&#xaa;" horiz-adv-x="909" d="M55 922q0 55 45 94t119 58.5t143.5 27.5t143.5 8v88q0 279 -119 279q-45 0 -98 -25q80 -33 80 -119q0 -55 -36 -92t-93 -37q-53 0 -90 36t-37 93q0 96 83 157.5t203 61.5q57 0 111.5 -15t110 -53t88 -113t32.5 -179v-318q23 -6 65 -7t57.5 -10t15.5 -40q0 -49 -58 -49 h-112q-90 0 -121 17.5t-47 60.5q-70 -88 -209 -88q-147 0 -212 50.5t-65 113.5zM78 606q0 39 57 39h635q14 0 25.5 -2t23.5 -11t10 -28q0 -35 -57 -35h-643q-51 0 -51 37zM297 922q0 -37 20.5 -64t61.5 -27q12 0 29.5 3.5t42 13.5t41 34.5t16.5 59.5q0 4 -1 10t-1 9v83 q-209 -22 -209 -122z" />
<glyph unicode="&#xab;" horiz-adv-x="1136" d="M174 483q0 14 35 45t86 72t120.5 128t125.5 198q20 41 47 41q35 0 35 -35q0 -18 -21.5 -83t-74 -170.5t-117.5 -195.5q84 -111 148.5 -260t64.5 -188q0 -33 -35 -33q-23 0 -45 39q-55 109 -125 197t-121 130t-87 72.5t-36 42.5zM571 483.5q0 14.5 35 44t86 70.5t121 129 t125 199q20 41 47 41q35 0 35 -35q0 -18 -21.5 -83t-74 -170.5t-117.5 -195.5q84 -111 148.5 -260t64.5 -188q0 -33 -35 -33q-23 0 -45 39q-55 109 -125 197t-121 129t-87 71.5t-36 45z" />
<glyph unicode="&#xac;" horiz-adv-x="1366" d="M115 696.5q0 61.5 78 61.5h964q2 0 6 1l4 1q49 0 65.5 -20.5t16.5 -65.5v-467q0 -82 -61.5 -82t-61.5 80v430h-933q-78 0 -78 61.5z" />
<glyph unicode="&#xad;" horiz-adv-x="342" d="M20 356v199h545v-199h-545z" />
<glyph unicode="&#xae;" horiz-adv-x="2275" d="M113 512q0 475 281.5 761t744.5 286q453 0 737.5 -284t284.5 -763q0 -475 -282 -761t-744 -286q-453 0 -737.5 284t-284.5 763zM236 510q0 -422 246.5 -671t650 -249t653.5 245t250 679q0 424 -247 672t-648 248q-403 0 -654 -246t-251 -678zM487 0v98h195v787h-195v98 h566q205 0 323 -49q90 -37 137.5 -96.5t47.5 -128.5q0 -154 -234 -228q43 -20 70.5 -44.5t43 -57.5t21.5 -56.5t14.5 -71.5t14.5 -77q12 -59 42 -90t64 -31q33 0 58.5 30t34.5 81q0 2 1 9t1 10t2 11.5t5 12.5t8 9t13.5 7t18.5 2q49 0 49 -49q0 -20 -8 -49t-27.5 -64.5 t-63.5 -60.5t-106 -25h-29q-76 0 -126 4.5t-102 16.5t-83 36.5t-50 66.5t-19 104v71q0 109 -32 144t-91 35h-88v-357h192v-98q-172 6 -344 6q-129 0 -324 -6zM963 528h71q139 0 177 33t38 141q0 115 -32.5 149t-176.5 34h-77v-357z" />
<glyph unicode="&#xaf;" d="M141 1321v106h738v-106h-738z" />
<glyph unicode="&#xb0;" horiz-adv-x="681" d="M113 1178q0 100 64.5 163.5t162.5 63.5t162.5 -62.5t64.5 -165t-65.5 -165t-161.5 -62.5q-98 0 -162.5 63t-64.5 165zM238 1178q0 -45 26.5 -75t75.5 -30q47 0 75.5 30t28.5 75t-27.5 73.5t-76.5 28.5q-55 0 -78.5 -31.5t-23.5 -70.5z" />
<glyph unicode="&#xb1;" horiz-adv-x="1593" d="M115 61q0 23 16 39.5t37 20.5q14 2 43 2h522v498h-528q-90 0 -90 61q2 61 84 61h534v529q0 90 64 90q61 0 61 -92v-527h526q92 0 92.5 -61t-83.5 -61h-535v-498h526q90 0 93 -62q0 -59 -80 -61h-1180q-4 0 -10 -1t-10 -1q-82 0 -82 63z" />
<glyph unicode="&#xb2;" horiz-adv-x="909" d="M102 711v178q2 31 10.5 41t43.5 28q23 12 69.5 39t66 38.5t56.5 33t53.5 33.5t41 31.5t35.5 35t24.5 36t17.5 41t4 42.5q0 55 -32.5 103.5t-104.5 64.5q10 -31 10 -57q0 -63 -43 -105.5t-104 -42.5q-63 0 -105.5 42t-42.5 104q0 162 312 162q211 0 302 -84t91 -189 q0 -61 -45 -119h45l-62 -456h-643zM342 969h127q147 0 177 8t40 51q8 33 16 90l-67 -33l-139 -51z" />
<glyph unicode="&#xb3;" horiz-adv-x="909" d="M84 938q0 66 44 113t113.5 47t113.5 -46t44 -112q0 -82 -80 -137q57 -12 88 -12t51.5 11t30 22.5t14.5 39t5 41v47.5v31q0 45 -9.5 72.5t-27.5 39t-32.5 15.5t-42 4t-38.5 2q-37 -18 -73 -18q-51 0 -97.5 34.5t-46.5 112.5q0 115 74 214.5t215 99.5q152 0 244 -55.5 t92 -143.5q0 -129 -174 -205q229 -53 229 -205q0 -94 -95 -172t-302 -78q-150 0 -245 66t-95 172zM274 1382q68 -2 110 -38.5t42 -102.5q0 -23 -6 -47q63 27 63 172q0 39 -3 58.5t-18.5 36t-47.5 16.5q-89 -1 -140 -95z" />
<glyph unicode="&#xb4;" d="M424 1094q23 27 48.5 59.5t40.5 51t33.5 41t30 34.5t24.5 27.5t21.5 21.5t19.5 14.5t19.5 11.5t17.5 5t19 2q49 0 86 -41t37 -90q0 -53 -38 -79t-197 -93q-66 -29 -105 -45z" />
<glyph unicode="&#xb5;" horiz-adv-x="1136" d="M47 -301h143v1036q0 45 -22.5 58.5t-97.5 13.5h-23v98l377 17v-594q0 -12 -1 -39t-1 -39q0 -115 20.5 -151t110.5 -36q78 0 141.5 66t63.5 215v383q0 51 -20.5 65.5t-104.5 14.5h-19v98l377 17v-748q0 -47 21.5 -61.5t99.5 -14.5h21v-98l-365 -10v141q-82 -143 -246 -143 q-47 0 -98 6v-295h141v-98q-135 6 -268 6q-23 0 -250 -6v98z" />
<glyph unicode="&#xb6;" horiz-adv-x="1251" d="M113 936q0 188 141 336.5t395 148.5h461q80 0 80 -61.5t-78 -61.5h-90v-1572h88q80 0 80 -62q0 -63 -80 -63h-565q-82 0 -82 63q0 61 88 62h82v727q-219 20 -369.5 152t-150.5 331zM756 -274h143v1572h-143v-1572z" />
<glyph unicode="&#xb7;" horiz-adv-x="448" d="M64 484q0 70 49 114.5t111 44.5q63 0 111 -46t48 -113q0 -61 -46 -110.5t-113 -49.5q-63 0 -111.5 46t-48.5 114z" />
<glyph unicode="&#xb8;" horiz-adv-x="909" d="M166 -334h20q160 0 240 21.5t80 83.5q0 41 -39 72.5t-131 33.5v123h233v-66q18 -4 38 -10t54.5 -22.5t56 -50t21.5 -78.5q0 -104 -132 -142.5t-441 -38.5v74z" />
<glyph unicode="&#xb9;" horiz-adv-x="909" d="M141 1307v98q102 2 178 26.5t108 53t60.5 51.5t49.5 23q51 0 51 -68v-682h178v-98h-109l82 2l-186 4l-209 -2l-147 -4h-27v98h172v532q-92 -32 -201 -34z" />
<glyph unicode="&#xba;" horiz-adv-x="909" d="M55 1145q0 184 109.5 295.5t288 111.5t289 -111.5t110.5 -295.5q0 -176 -108.5 -281.5t-290.5 -105.5q-178 0 -288 104.5t-110 282.5zM78 606q0 39 57 39h635q14 0 25.5 -2t23.5 -11t10 -28q0 -35 -57 -35h-643q-51 0 -51 37zM317 1122q0 -170 15 -202q14 -37 49 -58.5 t74 -21.5t72.5 22.5t47.5 59.5q14 41 15 215v65q0 160 -17 197q-33 78 -120 78q-39 0 -73 -21.5t-48 -58.5q-14 -35 -15 -215v-60z" />
<glyph unicode="&#xbb;" horiz-adv-x="1136" d="M115 35q0 18 21.5 82.5t73.5 170t118 195.5q-84 113 -148.5 261.5t-64.5 187.5q0 35 35 35q31 0 47 -39q53 -109 122.5 -197t121 -130t87 -72.5t35.5 -45.5q0 -6 -2 -11t-7 -10t-9 -8t-12.5 -10.5t-12.5 -9.5q-201 -156 -323 -393q-20 -39 -47 -39q-35 0 -35 33zM512 932 q0 35 37 35q29 0 45 -39q53 -109 122.5 -197t121 -130t87.5 -72.5t36 -45.5q0 -6 -2.5 -11t-7.5 -10t-9 -8t-12 -10.5t-12 -9.5q-201 -156 -324 -393q-20 -39 -45 -39q-35 0 -35 29q0 43 59.5 185t151.5 267q-86 111 -149.5 260.5t-63.5 188.5z" />
<glyph unicode="&#xbc;" horiz-adv-x="909" d="M-2 569q0 20 14.5 38t36.5 22q14 2 43 2h733q88 0 88 -60q0 -66 -82 -65h-757q-76 2 -76 63zM57 -162q0 20 8.5 32.5t43.5 49.5l426 442q29 29 46 37.5t54 8.5q20 0 30.5 -2.5t20.5 -14.5t10 -39v-483h158v-98h-158v-72h158v-98l-264 6l-348 -6v98h198v72h-383v67z M143 1386v97q10 0 48 1t54.5 2t50.5 4t56.5 8t53 14.5t57.5 21.5q49 25 72 25q55 0 55 -58v-649h178v-98q-150 6 -299.5 6t-296.5 -6v98h172v549q-51 -9 -201 -15zM176 -131h287v297z" />
<glyph unicode="&#xbd;" horiz-adv-x="909" d="M-2 569q0 20 14.5 38t36.5 22q14 2 43 2h733q88 0 88 -60q0 -66 -82 -65h-757q-76 2 -76 63zM102 -356q0 29 7.5 41t37.5 39q43 37 109 93t92.5 78.5t65.5 60.5t53 56.5t31.5 46t21.5 51t4 54.5q0 98 -131 135q2 -8 2 -23q0 -57 -42 -97t-103 -40q-63 0 -104.5 40 t-41.5 102q0 43 27 70.5t79 37.5t93 13.5t103 3.5q123 0 207.5 -23t123.5 -60.5t54.5 -74.5t15.5 -78q0 -59 -41 -113h43l-64 -456h-643v43zM143 1386v97q10 0 48 1t54.5 2t50.5 4t56.5 8t53 14.5t57.5 21.5q49 25 72 25q55 0 55 -58v-649h178v-98q-150 6 -299.5 6 t-296.5 -6v98h172v549q-51 -9 -201 -15zM426 -141q115 0 172 2q4 0 18.5 1t17.5 2t13 3t11 5t9.5 7t9.5 12.5t6 18.5t7 24.5t5 32t7 41.5l-133 -67z" />
<glyph unicode="&#xbe;" horiz-adv-x="909" d="M-2 569q0 20 14.5 38t36.5 22q14 2 43 2h733q88 0 88 -60q0 -66 -82 -65h-757q-76 2 -76 63zM57 -162q0 20 8.5 32.5t43.5 49.5l426 442q29 29 46 37.5t54 8.5q20 0 30.5 -2.5t20.5 -14.5t10 -39v-483h158v-98h-158v-72h158v-98l-264 6l-348 -6v98h198v72h-383v67z M86 967q0 68 44 112.5t114 44.5q66 0 110.5 -43t44.5 -112q0 -82 -73 -135q49 -12 86 -13q31 0 51 11.5t29.5 22.5t14.5 39t5 40v45q0 88 -25 117q-18 23 -44.5 28.5t-47 2.5t-36 8.5t-17.5 44.5q-25 -8 -59 -9q-59 0 -99.5 40t-40.5 104q0 88 75 166t214 78 q152 0 244 -52.5t92 -140.5q0 -127 -168 -197q225 -59 225 -196q0 -92 -98 -167t-299 -75q-150 0 -246 66t-96 170zM176 -131h287v297zM324 1450q104 -39 104 -139q0 -51 -47 -107q29 4 39 7t30.5 18.5t27.5 51.5t7 97q0 49 -12 74t-57 25h-2q-37 0 -90 -27z" />
<glyph unicode="&#xbf;" horiz-adv-x="966" d="M113 -145q0 53 18.5 98t34.5 64.5t51 49t41 35.5q147 147 148 359v26q-4 72 40 74q2 0 5.5 1t5.5 1q29 0 38 -14t9 -47q0 -2 -1 -9.5t-1 -11.5q0 -143 -23.5 -249.5t-56.5 -180.5t-35 -84q-12 -45 -12 -117v-67q0 -63 15.5 -90t74.5 -27q135 0 221 66q-90 33 -90 123 q0 55 36 91t91 36q53 0 91 -37t38 -97q0 -115 -113.5 -186.5t-285.5 -71.5q-102 0 -174 26t-106 68t-47 83t-13 88zM295 864q0 61 46 109.5t114 48.5q63 0 111 -46t48 -114q0 -61 -46 -109t-113 -48q-70 0 -115 48t-45 111z" />
<glyph unicode="&#xc0;" horiz-adv-x="1546" d="M72 0v96q78 0 118 4q43 4 53.5 11.5t18.5 31.5l434 1233q12 37 28.5 45.5t49.5 8.5q23 0 33 -2.5t22.5 -14.5t20.5 -37l450 -1280h175v-96q-74 6 -308 6q-260 0 -333 -6v96h170l-97 277h-448l-80 -228q-8 -25 -8 -24q0 -25 159 -25v-96q-147 6 -241 6q-39 0 -217 -6z M485 1667q0 49 35 91t84 42q10 0 17.5 -1t16.5 -5t17.5 -7t22.5 -13.5t25.5 -19.5t35 -27.5t44 -35t56 -45t68.5 -55.5l-41 -88q-43 8 -102 18.5t-89 16.5t-68 14.5t-55 17.5t-35.5 22.5t-25 31.5t-6.5 43zM492 469h380l-190 541z" />
<glyph unicode="&#xc1;" horiz-adv-x="1546" d="M72 0v96q78 0 118 4q43 4 53.5 11.5t18.5 31.5l434 1233q12 37 28.5 45.5t49.5 8.5q23 0 33 -2.5t22.5 -14.5t20.5 -37l450 -1280h175v-96q-74 6 -308 6q-260 0 -333 -6v96h170l-97 277h-448l-80 -228q-8 -25 -8 -24q0 -25 159 -25v-96q-147 6 -241 6q-39 0 -217 -6z M492 469h380l-190 541zM582 1594q39 31 98 78q111 88 142.5 108.5t64.5 20.5q51 0 83.5 -42t32.5 -89q0 -68 -52 -91.5t-220 -54.5q-70 -12 -109 -20z" />
<glyph unicode="&#xc2;" horiz-adv-x="1546" d="M72 0v96q78 0 118 4q43 4 53.5 11.5t18.5 31.5l434 1233q12 37 28.5 45.5t49.5 8.5q23 0 33 -2.5t22.5 -14.5t20.5 -37l450 -1280h175v-96q-74 6 -308 6q-260 0 -333 -6v96h170l-97 277h-448l-80 -228q-8 -25 -8 -24q0 -25 159 -25v-96q-147 6 -241 6q-39 0 -217 -6z M487 1585l285 258h2l287 -258l-62 -76l-225 164h-2l-223 -164zM492 469h380l-190 541z" />
<glyph unicode="&#xc3;" horiz-adv-x="1546" d="M72 0v96q78 0 118 4q43 4 53.5 11.5t18.5 31.5l434 1233q12 37 28.5 45.5t49.5 8.5q23 0 33 -2.5t22.5 -14.5t20.5 -37l450 -1280h175v-96q-74 6 -308 6q-260 0 -333 -6v96h170l-97 277h-448l-80 -228q-8 -25 -8 -24q0 -25 159 -25v-96q-147 6 -241 6q-39 0 -217 -6z M375 1659q10 12 35.5 44t33 40t28 29.5t31.5 26.5t30.5 15.5t38 13.5t42.5 3q51 0 174 -33t175 -33q90 0 151 66l57 -47q-10 -12 -35.5 -44t-33.5 -41t-27.5 -29.5t-31 -27t-31 -15.5t-38 -12t-42.5 -3q-51 0 -174 32.5t-174 32.5q-88 0 -152 -67zM492 469h380l-190 541z " />
<glyph unicode="&#xc4;" horiz-adv-x="1546" d="M72 0v96q78 0 118 4q43 4 53.5 11.5t18.5 31.5l434 1233q12 37 28.5 45.5t49.5 8.5q23 0 33 -2.5t22.5 -14.5t20.5 -37l450 -1280h175v-96q-74 6 -308 6q-260 0 -333 -6v96h170l-97 277h-448l-80 -228q-8 -25 -8 -24q0 -25 159 -25v-96q-147 6 -241 6q-39 0 -217 -6z M416 1671q0 66 46 113t111 47q63 0 111.5 -46t48.5 -114q0 -63 -45 -111.5t-113 -48.5q-63 0 -111 46t-48 114zM492 469h380l-190 541zM813 1671q0 61 46 110.5t114 49.5q63 0 110 -46t47 -114q0 -66 -45 -113t-112 -47q-63 0 -111.5 46t-48.5 114z" />
<glyph unicode="&#xc5;" horiz-adv-x="1546" d="M72 0v98q125 0 152.5 10.5t43.5 55.5l426 1206q-139 53 -139 232q0 111 60.5 178t158.5 67t157.5 -66.5t59.5 -176.5q0 -180 -139 -234l448 -1272h175v-98q-164 6 -291 6h-13q-168 0 -337 -6v98h170l-97 273h-448q-82 -233 -82 -244q0 -29 153 -29v-98q-123 6 -245 6 q-86 0 -213 -6zM492 469h380l-190 539zM651 1587q0 -45 6.5 -73.5t34 -56t80.5 -27.5q35 0 59.5 12t37 26.5t18.5 44t7 48t1 55.5q0 33 -3 55.5t-14.5 49t-38 40t-67.5 13.5q-35 0 -59.5 -11.5t-36.5 -26t-17.5 -45t-6.5 -48t-1 -56.5z" />
<glyph unicode="&#xc6;" horiz-adv-x="1853" d="M72 0v98q125 0 153.5 10.5t42.5 51.5l418 1147h-135v98h1126l62 -496h-99q-16 125 -34.5 192.5t-59.5 119t-107.5 69t-178.5 17.5h-132v-582h54q137 0 172 51t35 187h98v-576h-98q0 94 -12.5 139t-53.5 72q-47 29 -156 29h-39v-529h156q70 0 125 12.5t94 30t70 55 t48 66.5t32.5 88.5t24 97t20.5 115.5h98l-94 -563h-989v98h145v529h-303q-178 -492 -178 -498q0 -31 153 -31v-98q-123 6 -245 6q-107 0 -213 -6zM590 725h268v582h-55z" />
<glyph unicode="&#xc7;" horiz-adv-x="1478" d="M113 700q0 330 201.5 528.5t516.5 198.5q184 0 336 -127q14 12 32 29t27 25t21.5 19t19.5 17.5t16 13.5t14.5 10t10.5 6t10 4t9 1q37 0 37 -61v-440q0 -31 -11.5 -41.5t-45.5 -10.5q-47 0 -54 46q-27 170 -125 290.5t-258 120.5q-100 0 -192 -42t-150 -120 q-102 -135 -102 -438v-20q0 -92 4 -151.5t21.5 -146.5t62.5 -154t115 -112q111 -70 248 -69q162 0 268 108.5t119 261.5q2 23 4 33t12 18.5t33 8.5q51 0 51 -43q0 -152 -109.5 -293t-296.5 -180v-56l19 -4q18 -6 42.5 -16t49.5 -26.5t42 -46t17 -68.5q0 -104 -130 -142.5 t-420 -38.5h-25v74h25q158 0 236.5 22.5t78.5 82.5q0 102 -168 106v109q-295 41 -453.5 236t-158.5 478z" />
<glyph unicode="&#xc8;" horiz-adv-x="1341" d="M70 0v96h192v1200h-192v97h1093l64 -494h-97q-12 86 -20 131t-32.5 105.5t-61.5 89t-102.5 50t-157.5 21.5h-203v-526h45q127 0 161 54.5t34 185.5h96v-576h-96q0 68 -4.5 102.5t-22.5 71.5t-59 51.5t-109 14.5h-45v-578h211q84 0 146.5 14.5t105.5 48.5t70.5 68.5t48 97 t31 108.5t22.5 128h96l-94 -561h-1120zM457 1668q0 47 33.5 89t84.5 42q39 0 105 -50q27 -20 102 -81q59 -47 96 -76l-41 -90q-35 6 -83 15t-73.5 13t-60 11.5t-53 12.5t-40 13t-32 17.5t-20.5 21.5t-14 28t-4 34z" />
<glyph unicode="&#xc9;" horiz-adv-x="1341" d="M70 0v96h192v1200h-192v97h1093l64 -494h-97q-12 86 -20 131t-32.5 105.5t-61.5 89t-102.5 50t-157.5 21.5h-203v-526h45q127 0 161 54.5t34 185.5h96v-576h-96q0 68 -4.5 102.5t-22.5 71.5t-59 51.5t-109 14.5h-45v-578h211q84 0 146.5 14.5t105.5 48.5t70.5 68.5t48 97 t31 108.5t22.5 128h96l-94 -561h-1120zM582 1594q39 31 98 78q111 88 142.5 108.5t64.5 20.5q51 0 83.5 -42t32.5 -89q0 -68 -52 -91.5t-220 -54.5q-70 -12 -109 -20z" />
<glyph unicode="&#xca;" horiz-adv-x="1341" d="M70 0v96h192v1200h-192v97h1093l64 -494h-97q-12 86 -20 131t-32.5 105.5t-61.5 89t-102.5 50t-157.5 21.5h-203v-526h45q127 0 161 54.5t34 185.5h96v-576h-96q0 68 -4.5 102.5t-22.5 71.5t-59 51.5t-109 14.5h-45v-578h211q84 0 146.5 14.5t105.5 48.5t70.5 68.5t48 97 t31 108.5t22.5 128h96l-94 -561h-1120zM401 1585l285 258h2l287 -258l-62 -76l-225 164h-2l-223 -164z" />
<glyph unicode="&#xcb;" horiz-adv-x="1341" d="M70 0v96h192v1200h-192v97h1093l64 -494h-97q-12 86 -20 131t-32.5 105.5t-61.5 89t-102.5 50t-157.5 21.5h-203v-526h45q127 0 161 54.5t34 185.5h96v-576h-96q0 68 -4.5 102.5t-22.5 71.5t-59 51.5t-109 14.5h-45v-578h211q84 0 146.5 14.5t105.5 48.5t70.5 68.5t48 97 t31 108.5t22.5 128h96l-94 -561h-1120zM330 1671q0 63 45 111.5t112 48.5q63 0 111.5 -46t48.5 -113.5t-47 -114t-110.5 -46.5t-111.5 46t-48 114zM727 1671q0 66 47 113t113 47q63 0 110 -46t47 -114q0 -70 -48 -115t-109 -45q-63 0 -111.5 46t-48.5 114z" />
<glyph unicode="&#xcc;" horiz-adv-x="813" d="M57 0v96h203v1213h-203v96q74 -6 348.5 -6t348.5 6v-96h-203v-1213h203v-96q-74 6 -348.5 6t-348.5 -6zM148 1668q0 47 33.5 89t84.5 42q39 0 105 -50q27 -20 102 -81q59 -47 96 -76l-41 -90q-35 6 -83 15t-73.5 13t-60 11.5t-53 12.5t-40 13t-32 17.5t-20.5 21.5t-14 28 t-4 34z" />
<glyph unicode="&#xcd;" horiz-adv-x="813" d="M57 0v96h203v1213h-203v96q74 -6 348.5 -6t348.5 6v-96h-203v-1213h203v-96q-74 6 -348.5 6t-348.5 -6zM203 1594q39 31 98 78q111 88 142.5 108.5t64.5 20.5q51 0 83.5 -42t32.5 -89q0 -68 -52 -91.5t-220 -54.5q-70 -12 -109 -20z" />
<glyph unicode="&#xce;" horiz-adv-x="813" d="M57 0v96h203v1213h-203v96q74 -6 348.5 -6t348.5 6v-96h-203v-1213h203v-96q-74 6 -348.5 6t-348.5 -6zM119 1585l287 258h2l284 -258l-61 -76h-2l-221 164h-2l-222 -164h-4z" />
<glyph unicode="&#xcf;" horiz-adv-x="813" d="M47 1671q0 68 48 114t111.5 46t111 -46t47.5 -114q0 -66 -46.5 -113t-111.5 -47q-70 0 -115 49.5t-45 110.5zM57 0v96h203v1213h-203v96q74 -6 348.5 -6t348.5 6v-96h-203v-1213h203v-96q-74 6 -348.5 6t-348.5 -6zM444 1671.5q0 65.5 47.5 112.5t112.5 47 q63 0 110.5 -46t47.5 -114q0 -66 -46 -113t-112 -47q-63 0 -111.5 47.5t-48.5 113z" />
<glyph unicode="&#xd0;" horiz-adv-x="1568" d="M68 0v98h194v543h-135q-59 0 -59 49q0 45 53 47h141v570h-194v98h718q305 0 476 -170q193 -193 192 -545q0 -287 -146.5 -473t-406.5 -213q-39 -4 -115 -4h-718zM541 98h196q98 0 172 24.5t118 73t70.5 97.5t38 124t14.5 123t3 124v59q0 195 -28.5 307.5t-110.5 183.5 q-104 92 -291 93h-182v-570h250q39 0 57 -8t18 -41q0 -47 -63 -47h-262v-543z" />
<glyph unicode="&#xd1;" horiz-adv-x="1603" d="M70 0v96h41q57 0 102 6q37 4 43 11.5t6 42.5v1153h-192v96h426q33 0 44 -4t27 -27l664 -913v788q0 35 -7 42t-44 12q-43 6 -101 6h-41v96q221 -6 248 -6q18 0 246 6v-96h-41q-57 0 -102 -6q-37 -4 -43.5 -11.5t-6.5 -42.5v-1183q0 -41 -8 -53.5t-47 -12.5q-37 0 -55 27 l-858 1179v-1050q0 -35 7 -42.5t44 -11.5q43 -6 100 -6h41v-96q-221 6 -248 6q-18 0 -245 -6zM403 1659q10 12 36 44t34 41t27.5 29.5t31 26.5t31 15.5t37.5 12.5t43 3q51 0 174 -33t174 -33q88 0 150 66l57 -47q-10 -12 -35.5 -44t-34 -41t-28 -29.5t-30.5 -27t-30.5 -15.5 t-38 -12t-43.5 -3q-51 0 -173.5 32.5t-174.5 32.5q-86 0 -149 -67z" />
<glyph unicode="&#xd2;" horiz-adv-x="1536" d="M115 694q0 344 183 538.5t470 194.5q281 0 466 -192.5t185 -540.5q0 -336 -182 -526.5t-471 -190.5q-281 0 -466 188.5t-185 528.5zM428 723q0 -309 66 -457q41 -92 112.5 -147.5t161.5 -55.5q86 0 162 57.5t114 153.5q41 100 51.5 198.5t10.5 250.5q0 276 -55 410 q-43 102 -119 157.5t-166 55.5q-80 0 -157 -49.5t-124 -155.5q-57 -133 -57 -418zM537 1667q0 49 33.5 91t82.5 42q8 0 15.5 -1t14.5 -3t16.5 -7t17.5 -9t22.5 -15.5t27.5 -20.5t34.5 -27.5t41 -34t53.5 -42t62 -49.5l-40 -88q-43 8 -102.5 18.5t-89.5 16.5t-67.5 14.5 t-55 17.5t-36 22.5t-24.5 31.5t-6 43z" />
<glyph unicode="&#xd3;" horiz-adv-x="1536" d="M115 694q0 344 183 538.5t470 194.5q281 0 466 -192.5t185 -540.5q0 -336 -182 -526.5t-471 -190.5q-281 0 -466 188.5t-185 528.5zM428 723q0 -309 66 -457q41 -92 112.5 -147.5t161.5 -55.5q86 0 162 57.5t114 153.5q41 100 51.5 198.5t10.5 250.5q0 276 -55 410 q-43 102 -119 157.5t-166 55.5q-80 0 -157 -49.5t-124 -155.5q-57 -133 -57 -418zM575 1591q33 27 70 55.5t57.5 45t43 35t35 27.5t26.5 19.5t22.5 13.5t17.5 7t16 5t18 1q49 0 82.5 -42t33.5 -91q0 -18 -3 -33.5t-13 -28t-20.5 -20.5t-32 -16t-40 -13.5t-51 -11.5t-60 -11 t-75 -13.5t-86.5 -16.5z" />
<glyph unicode="&#xd4;" horiz-adv-x="1536" d="M115 694q0 344 183 538.5t470 194.5q281 0 466 -192.5t185 -540.5q0 -336 -182 -526.5t-471 -190.5q-281 0 -466 188.5t-185 528.5zM428 723q0 -309 66 -457q41 -92 112.5 -147.5t161.5 -55.5q86 0 162 57.5t114 153.5q41 100 51.5 198.5t10.5 250.5q0 276 -55 410 q-43 102 -119 157.5t-166 55.5q-80 0 -157 -49.5t-124 -155.5q-57 -133 -57 -418zM481 1583v2l285 258h2l287 -258v-2l-62 -74l-225 164h-2l-223 -164z" />
<glyph unicode="&#xd5;" horiz-adv-x="1536" d="M115 694q0 344 183 538.5t470 194.5q281 0 466 -192.5t185 -540.5q0 -336 -182 -526.5t-471 -190.5q-281 0 -466 188.5t-185 528.5zM369 1659q10 12 35.5 44t32.5 40t27.5 29.5t32 26.5t31 15.5t38 13.5t42.5 3q59 0 174 -33t174 -33q84 0 152 66l57 -47 q-10 -12 -35.5 -44t-32.5 -40t-27.5 -29.5t-32 -27t-31 -15.5t-38 -13t-42.5 -3q-57 0 -174 32.5t-177 32.5q-80 0 -151 -67zM428 723q0 -309 66 -457q41 -92 112.5 -147.5t161.5 -55.5q86 0 162 57.5t114 153.5q41 100 51.5 198.5t10.5 250.5q0 276 -55 410 q-43 102 -119 157.5t-166 55.5q-80 0 -157 -49.5t-124 -155.5q-57 -133 -57 -418z" />
<glyph unicode="&#xd6;" horiz-adv-x="1536" d="M115 694q0 344 183 538.5t470 194.5q281 0 466 -192.5t185 -540.5q0 -336 -182 -526.5t-471 -190.5q-281 0 -466 188.5t-185 528.5zM410 1671q0 66 45 113t112 47q63 0 111.5 -46t48.5 -114q0 -61 -46 -110.5t-114 -49.5q-63 0 -110 46t-47 114zM428 723q0 -309 66 -457 q41 -92 112.5 -147.5t161.5 -55.5q86 0 162 57.5t114 153.5q41 100 51.5 198.5t10.5 250.5q0 276 -55 410q-43 102 -119 157.5t-166 55.5q-80 0 -157 -49.5t-124 -155.5q-57 -133 -57 -418zM807 1671q0 63 45 111.5t113 48.5q63 0 111 -46t48 -114q0 -66 -45 -113t-112 -47 q-63 0 -111.5 46t-48.5 114z" />
<glyph unicode="&#xd7;" horiz-adv-x="1593" d="M297 72q0 23 35 61q25 27 377 379q-377 375 -394 395q-18 23 -18 43q0 25 18.5 43.5t40.5 18.5q25 0 71 -44t368 -368h2l374 375q37 37 64 37q25 0 42 -18.5t17 -43.5q0 -23 -26 -51q-14 -16 -385 -387l383 -383q29 -33 28 -57q0 -23 -17 -41.5t-42 -18.5t-71 44 t-367 368h-2l-375 -375q-37 -37 -64 -37q-25 0 -42 16.5t-17 43.5z" />
<glyph unicode="&#xd8;" horiz-adv-x="1593" d="M113 692q0 338 188 536.5t494 198.5q160 0 327 -73l99 172l71 -41l-98 -174q139 -96 211 -257t72 -358q0 -330 -187.5 -524.5t-494.5 -194.5q-170 0 -328 74l-98 -172l-72 41l98 172q-137 90 -209.5 250t-72.5 350zM403 692q0 -113 2.5 -169t18.5 -138t51 -152h2 l582 1010q-115 109 -264 109q-102 0 -191.5 -53.5t-138.5 -155.5q-61 -129 -62 -412v-39zM530 160q115 -106 265 -107q102 0 193 52.5t138 154.5q59 127 60 442q0 184 -15.5 280.5t-58.5 186.5z" />
<glyph unicode="&#xd9;" horiz-adv-x="1574" d="M70 1309v96q72 -6 338 -6t337 6v-96h-192v-879q0 -356 283 -356q150 0 258 93t108 304v778q0 35 -7 42t-44 12q-43 6 -100 6h-41v96q221 -6 247 -6q18 0 246 6v-96h-41q-57 0 -102 -6q-37 -4 -43 -11.5t-6 -42.5v-784q0 -211 -128 -349.5t-356 -138.5 q-260 0 -412.5 138.5t-152.5 353.5v840h-192zM555 1668q0 47 33.5 89t84.5 42q39 0 105 -50q27 -20 102 -81q59 -47 96 -76l-41 -90q-35 6 -83 15t-73.5 13t-60 11.5t-53 12.5t-40 13t-32 17.5t-20.5 21.5t-14 28t-4 34z" />
<glyph unicode="&#xda;" horiz-adv-x="1574" d="M70 1309v96q72 -6 338 -6t337 6v-96h-192v-879q0 -356 283 -356q150 0 258 93t108 304v778q0 35 -7 42t-44 12q-43 6 -100 6h-41v96q221 -6 247 -6q18 0 246 6v-96h-41q-57 0 -102 -6q-37 -4 -43 -11.5t-6 -42.5v-784q0 -211 -128 -349.5t-356 -138.5 q-260 0 -412.5 138.5t-152.5 353.5v840h-192zM678 1594q39 31 98 78q111 88 142.5 108.5t64.5 20.5q51 0 83.5 -42t32.5 -89q0 -68 -52 -91.5t-220 -54.5q-70 -12 -109 -20z" />
<glyph unicode="&#xdb;" horiz-adv-x="1574" d="M70 1309v96q72 -6 338 -6t337 6v-96h-192v-879q0 -356 283 -356q150 0 258 93t108 304v778q0 35 -7 42t-44 12q-43 6 -100 6h-41v96q221 -6 247 -6q18 0 246 6v-96h-41q-57 0 -102 -6q-37 -4 -43 -11.5t-6 -42.5v-784q0 -211 -128 -349.5t-356 -138.5 q-260 0 -412.5 138.5t-152.5 353.5v840h-192zM545 1585l286 258h3l284 -258l-61 -76h-2l-221 164h-3l-221 -164h-4z" />
<glyph unicode="&#xdc;" horiz-adv-x="1574" d="M70 1309v96q72 -6 338 -6t337 6v-96h-192v-879q0 -356 283 -356q150 0 258 93t108 304v778q0 35 -7 42t-44 12q-43 6 -100 6h-41v96q221 -6 247 -6q18 0 246 6v-96h-41q-57 0 -102 -6q-37 -4 -43 -11.5t-6 -42.5v-784q0 -211 -128 -349.5t-356 -138.5 q-260 0 -412.5 138.5t-152.5 353.5v840h-192zM428 1671q0 66 46 113t112 47q63 0 111 -46t48 -114q0 -63 -45 -111.5t-112 -48.5q-63 0 -111.5 46t-48.5 114zM825 1671q0 61 46.5 110.5t113.5 49.5q63 0 110.5 -46t47.5 -114q0 -66 -46 -113t-112 -47q-63 0 -111.5 46 t-48.5 114z" />
<glyph unicode="&#xdd;" horiz-adv-x="1546" d="M33 1309v96q74 -6 307 -6q268 0 342 6v-96h-154l342 -600l332 579q-49 20 -141 21v96q104 -6 244 -6q68 0 208 6v-96q-84 0 -125.5 -5.5t-52 -12.5t-20.5 -25l-404 -705v-465h195v-96q-72 6 -334 6q-260 0 -332 -6v96h193v465l-426 748h-174zM666 1592q39 31 98 78 q111 88 142.5 108.5t64.5 20.5q51 0 83.5 -42t32.5 -89q0 -68 -52 -91.5t-220 -54.5q-70 -12 -109 -20z" />
<glyph unicode="&#xde;" horiz-adv-x="1286" d="M68 0v98h194v1209h-194v98q170 -6 340 -6q158 0 315 6v-98h-193v-150h211q121 0 210 -38t134 -100.5t65.5 -127t20.5 -131.5q0 -72 -20.5 -136.5t-67.5 -126t-139 -97t-219 -35.5h-195v-267h193v-98q-172 6 -342 6q-30 0 -313 -6zM530 463h150q188 0 188 301 q0 295 -161 295h-177v-596z" />
<glyph unicode="&#xdf;" horiz-adv-x="1146" d="M31 0v98h143v715h-143v98h143v179q0 8 -1 22t-1 21q0 301 399 301q346 0 347 -293q0 -61 -7.5 -109.5t-23 -77t-28.5 -48t-34.5 -29t-33 -13.5t-31 -5t-21.5 -1q-84 -16 -84 -121q0 -59 33 -94t55.5 -41t34.5 -6q12 -2 32.5 -5t72 -23.5t90.5 -50.5t71.5 -91t32.5 -139 q0 -141 -79.5 -219t-223.5 -78q-80 0 -141 43q-72 -43 -86 -43q-39 0 -39 57q0 6 1 17.5t1 17.5v156q0 4 -1 8t-1 6q0 41 9 55.5t42 14.5q29 0 38 -11.5t13 -34.5q10 -47 17.5 -73.5t25 -64.5t48 -56.5t73.5 -18.5q86 0 122 44.5t36 105.5q0 63 -38 104t-75 50l-39 8 q-111 25 -151 51q-119 80 -119 242q0 156 104 221q39 25 86.5 32t67.5 12t35.5 49t15.5 144q0 49 -5 80t-25.5 71t-73.5 60.5t-135 20.5q-51 0 -88 -14.5t-55.5 -33t-28 -51t-11.5 -55t-2 -61.5v-1143l-80 6z" />
<glyph unicode="&#xe0;" horiz-adv-x="995" d="M57 223q0 152 162 234t402 86v73q0 109 -44.5 173.5t-132.5 64.5q-55 0 -120 -12q47 -47 47 -103q0 -61 -39 -95t-90 -34q-47 0 -87 34t-40 95q0 51 29.5 90t67.5 56.5t92 28t84 12.5t63 2q188 0 295.5 -84t107.5 -230v-442q0 -27 3 -39t25.5 -23.5t67.5 -13.5 q14 -2 21.5 -4t14.5 -13t7 -30q0 -33 -14 -41t-51 -8h-86q-66 0 -108 16.5t-56 45t-18.5 47t-4.5 43.5q-76 -164 -252 -164q-133 0 -239.5 59t-106.5 176zM297 223.5q0 -63.5 36 -113t95 -49.5q63 0 128 52.5t65 169.5v194q-29 -2 -55.5 -6t-80 -20.5t-91.5 -41t-67.5 -73.5 t-29.5 -112.5zM314 1231q0 47 35.5 89t87.5 42q39 0 69.5 -27.5t134.5 -156.5q43 -51 70 -84l-57 -80q-258 109 -287 127q-53 35 -53 90z" />
<glyph unicode="&#xe1;" horiz-adv-x="995" d="M57 223q0 152 162 234t402 86v73q0 109 -44.5 173.5t-132.5 64.5q-55 0 -120 -12q47 -47 47 -103q0 -61 -39 -95t-90 -34q-47 0 -87 34t-40 95q0 51 29.5 90t67.5 56.5t92 28t84 12.5t63 2q188 0 295.5 -84t107.5 -230v-442q0 -27 3 -39t25.5 -23.5t67.5 -13.5 q14 -2 21.5 -4t14.5 -13t7 -30q0 -33 -14 -41t-51 -8h-86q-66 0 -108 16.5t-56 45t-18.5 47t-4.5 43.5q-76 -164 -252 -164q-133 0 -239.5 59t-106.5 176zM297 223.5q0 -63.5 36 -113t95 -49.5q63 0 128 52.5t65 169.5v194q-29 -2 -55.5 -6t-80 -20.5t-91.5 -41t-67.5 -73.5 t-29.5 -112.5zM311 1094q23 27 48.5 59.5t40.5 51t33.5 41t30 34.5t24.5 27.5t21.5 21.5t19.5 14.5t19.5 11.5t17.5 5t19 2q49 0 86 -41t37 -90q0 -53 -38 -79t-197 -93q-66 -29 -105 -45z" />
<glyph unicode="&#xe2;" horiz-adv-x="995" d="M57 223q0 152 162 234t402 86v73q0 109 -44.5 173.5t-132.5 64.5q-55 0 -120 -12q47 -47 47 -103q0 -61 -39 -95t-90 -34q-47 0 -87 34t-40 95q0 51 29.5 90t67.5 56.5t92 28t84 12.5t63 2q188 0 295.5 -84t107.5 -230v-442q0 -27 3 -39t25.5 -23.5t67.5 -13.5 q14 -2 21.5 -4t14.5 -13t7 -30q0 -33 -14 -41t-51 -8h-86q-66 0 -108 16.5t-56 45t-18.5 47t-4.5 43.5q-76 -164 -252 -164q-133 0 -239.5 59t-106.5 176zM164 1044l289 304h2l291 -306l-70 -69l-221 207h-2l-219 -207zM297 223.5q0 -63.5 36 -113t95 -49.5q63 0 128 52.5 t65 169.5v194q-29 -2 -55.5 -6t-80 -20.5t-91.5 -41t-67.5 -73.5t-29.5 -112.5z" />
<glyph unicode="&#xe3;" horiz-adv-x="995" d="M57 223q0 152 162 234t402 86v73q0 109 -44.5 173.5t-132.5 64.5q-55 0 -120 -12q47 -47 47 -103q0 -61 -39 -95t-90 -34q-47 0 -87 34t-40 95q0 51 29.5 90t67.5 56.5t92 28t84 12.5t63 2q188 0 295.5 -84t107.5 -230v-442q0 -27 3 -39t25.5 -23.5t67.5 -13.5 q14 -2 21.5 -4t14.5 -13t7 -30q0 -33 -14 -41t-51 -8h-86q-66 0 -108 16.5t-56 45t-18.5 47t-4.5 43.5q-76 -164 -252 -164q-133 0 -239.5 59t-106.5 176zM109 1124q10 12 30.5 39t28 37t23.5 28.5t24.5 25.5t22.5 18.5t26.5 15.5t28 7t31.5 3q49 0 140 -31.5t141 -31.5 q66 0 129 63l57 -45q-10 -12 -30.5 -38.5t-28 -37t-23.5 -29t-24.5 -25.5t-22.5 -18t-26.5 -15.5t-28 -7.5t-31.5 -3q-49 0 -140 32t-141 32q-66 0 -129 -64zM297 223.5q0 -63.5 36 -113t95 -49.5q63 0 128 52.5t65 169.5v194q-29 -2 -55.5 -6t-80 -20.5t-91.5 -41 t-67.5 -73.5t-29.5 -112.5z" />
<glyph unicode="&#xe4;" horiz-adv-x="995" d="M57 223q0 152 162 234t402 86v73q0 109 -44.5 173.5t-132.5 64.5q-55 0 -120 -12q47 -47 47 -103q0 -61 -39 -95t-90 -34q-47 0 -87 34t-40 95q0 51 29.5 90t67.5 56.5t92 28t84 12.5t63 2q188 0 295.5 -84t107.5 -230v-442q0 -27 3 -39t25.5 -23.5t67.5 -13.5 q14 -2 21.5 -4t14.5 -13t7 -30q0 -33 -14 -41t-51 -8h-86q-66 0 -108 16.5t-56 45t-18.5 47t-4.5 43.5q-76 -164 -252 -164q-133 0 -239.5 59t-106.5 176zM152 1245q0 66 47 113t112.5 47t112.5 -45t47 -114.5t-49 -115t-111 -45.5q-63 0 -111 46t-48 114zM297 223.5 q0 -63.5 36 -113t95 -49.5q63 0 128 52.5t65 169.5v194q-29 -2 -55.5 -6t-80 -20.5t-91.5 -41t-67.5 -73.5t-29.5 -112.5zM551 1245q0 63 45 111.5t113 48.5q63 0 111 -46t48 -114q0 -66 -47 -113t-112.5 -47t-111.5 45t-46 115z" />
<glyph unicode="&#xe5;" horiz-adv-x="995" d="M57 223q0 152 162 234t402 86v73q0 109 -44.5 173.5t-132.5 64.5q-55 0 -120 -12q47 -47 47 -103q0 -61 -39 -95t-90 -34q-47 0 -87 34t-40 95q0 51 29.5 90t67.5 56.5t92 28t84 12.5t63 2q188 0 295.5 -84t107.5 -230v-442q0 -27 3 -39t25.5 -23.5t67.5 -13.5 q14 -2 21.5 -4t14.5 -13t7 -30q0 -33 -14 -41t-51 -8h-86q-66 0 -108 16.5t-56 45t-18.5 47t-4.5 43.5q-76 -164 -252 -164q-133 0 -239.5 59t-106.5 176zM236 1176q0 78 59 128t160 50q98 0 157.5 -49.5t59.5 -128.5q0 -78 -59.5 -128.5t-159.5 -50.5q-98 0 -157.5 49.5 t-59.5 129.5zM297 223.5q0 -63.5 36 -113t95 -49.5q63 0 128 52.5t65 169.5v194q-29 -2 -55.5 -6t-80 -20.5t-91.5 -41t-67.5 -73.5t-29.5 -112.5zM332 1178q0 -53 22.5 -81t94.5 -28q74 0 100 23.5t26 85.5q0 66 -29.5 85t-92.5 19q-61 0 -91 -19t-30 -85z" />
<glyph unicode="&#xe6;" horiz-adv-x="1478" d="M55 211q0 84 56.5 145.5t148.5 92t181 45t180 14.5v86q0 115 -27 166q-45 92 -152 92q-45 0 -118 -12q45 -51 45 -101q0 -55 -37 -91t-90 -36q-51 0 -90 34t-39 93q0 76 72.5 132.5t265.5 56.5q88 0 160.5 -21.5t93 -35t65.5 -46.5q117 102 289 103q102 0 177 -39 t112.5 -104.5t54 -133t16.5 -143.5q0 -41 -15 -51.5t-48 -10.5h-502q0 -211 80 -299q68 -76 166 -75q80 0 137 47t80 110q16 47 55 47q45 0 45 -38q0 -23 -19.5 -61t-56 -82t-105.5 -74.5t-153 -30.5q-195 0 -327 123h-2q-123 -123 -348 -123q-158 0 -254.5 60.5 t-96.5 160.5zM297 213q0 -59 37 -104.5t98 -45.5q88 0 156.5 57.5t68.5 121.5q0 10 -16 67.5t-20 128.5q-178 -14 -251 -78.5t-73 -146.5zM854 514h371q-2 61 -6.5 98t-19.5 103.5t-52 101.5t-92 35q-57 0 -108.5 -44t-74.5 -126q-14 -55 -18 -168z" />
<glyph unicode="&#xe7;" horiz-adv-x="909" d="M68 455q0 209 119.5 341t330.5 132q74 0 138.5 -14.5t118.5 -59.5t54 -115q0 -55 -35.5 -91t-91.5 -36q-53 0 -91 35t-38 92q0 51 41 97q-74 8 -92 8q-55 0 -96 -31q-61 -45 -78.5 -128t-17.5 -212v-45q0 -203 65.5 -279.5t151.5 -76.5q70 0 121 41t75 100q2 4 8.5 21.5 t9.5 20.5t13 8t27 5q49 0 49 -28q0 -23 -15.5 -62t-75 -94t-149.5 -84h19v-66q18 -4 37.5 -10t54.5 -22.5t56.5 -50t21.5 -78.5q0 -104 -133.5 -142.5t-442.5 -38.5v74h23q160 0 238.5 22.5t78.5 82.5q0 41 -37 72.5t-131 33.5v123h6q-154 33 -243.5 154t-89.5 301z" />
<glyph unicode="&#xe8;" horiz-adv-x="954" d="M57 461q0 213 124 340t325 127q113 0 193.5 -39t121.5 -104.5t58.5 -134t17.5 -144.5q0 -41 -12.5 -50.5t-53.5 -9.5h-512q0 -43 1.5 -70.5t7.5 -78.5t20 -85t39 -70t66 -54t96 -18q72 0 144.5 41t105.5 127q8 25 16 31.5t33 6.5q49 0 49 -36q0 -20 -19.5 -58.5 t-59.5 -83.5t-115.5 -77.5t-172.5 -32.5q-207 0 -340 128t-133 345zM319 514h383q0 39 -4 77t-19 107.5t-59.5 112.5t-111.5 43q-183 0 -189 -340zM334 1231q0 49 38 90t87 41q39 0 66.5 -25.5t125.5 -146.5q49 -59 80 -96l-57 -80q-260 113 -283 125q-55 39 -57 92z" />
<glyph unicode="&#xe9;" horiz-adv-x="954" d="M57 461q0 213 124 340t325 127q113 0 193.5 -39t121.5 -104.5t58.5 -134t17.5 -144.5q0 -41 -12.5 -50.5t-53.5 -9.5h-512q0 -43 1.5 -70.5t7.5 -78.5t20 -85t39 -70t66 -54t96 -18q72 0 144.5 41t105.5 127q8 25 16 31.5t33 6.5q49 0 49 -36q0 -20 -19.5 -58.5 t-59.5 -83.5t-115.5 -77.5t-172.5 -32.5q-207 0 -340 128t-133 345zM276 1094q29 35 64 79t52.5 64t40 47t33.5 38t26.5 22.5t29 14.5t27.5 3q49 0 87 -41t38 -90q0 -53 -42 -81t-196 -93q-66 -27 -102 -43zM319 514h383q0 39 -4 77t-19 107.5t-59.5 112.5t-111.5 43 q-183 0 -189 -340z" />
<glyph unicode="&#xea;" horiz-adv-x="954" d="M57 461q0 213 124 340t325 127q113 0 193.5 -39t121.5 -104.5t58.5 -134t17.5 -144.5q0 -41 -12.5 -50.5t-53.5 -9.5h-512q0 -43 1.5 -70.5t7.5 -78.5t20 -85t39 -70t66 -54t96 -18q72 0 144.5 41t105.5 127q8 25 16 31.5t33 6.5q49 0 49 -36q0 -20 -19.5 -58.5 t-59.5 -83.5t-115.5 -77.5t-172.5 -32.5q-207 0 -340 128t-133 345zM186 1042v2l289 304h2l289 -304v-2l-70 -69l-219 207h-2l-221 -207zM319 514h383q0 39 -4 77t-19 107.5t-59.5 112.5t-111.5 43q-183 0 -189 -340z" />
<glyph unicode="&#xeb;" horiz-adv-x="954" d="M57 461q0 213 124 340t325 127q113 0 193.5 -39t121.5 -104.5t58.5 -134t17.5 -144.5q0 -41 -12.5 -50.5t-53.5 -9.5h-512q0 -43 1.5 -70.5t7.5 -78.5t20 -85t39 -70t66 -54t96 -18q72 0 144.5 41t105.5 127q8 25 16 31.5t33 6.5q49 0 49 -36q0 -20 -19.5 -58.5 t-59.5 -83.5t-115.5 -77.5t-172.5 -32.5q-207 0 -340 128t-133 345zM119 1245q0 66 46 113t111 47q63 0 111.5 -46t48.5 -114q0 -61 -46 -110.5t-114 -49.5q-63 0 -110 46t-47 114zM319 514h383q0 39 -4 77t-19 107.5t-59.5 112.5t-111.5 43q-183 0 -189 -340zM516 1245 q0 63 45 111.5t113 48.5q63 0 111.5 -46t48.5 -114q0 -66 -46.5 -113t-111.5 -47q-63 0 -111.5 46t-48.5 114z" />
<glyph unicode="&#xec;" horiz-adv-x="567" d="M-6 1231q0 49 38 90t87 41q39 0 69.5 -27.5t135.5 -156.5q43 -51 69 -84l-59 -80q-260 113 -283 125q-55 39 -57 92zM55 0v96h142v633q0 57 -20.5 68.5t-115.5 11.5v96l357 17v-826h127v-96q-221 6 -240 6q-60 0 -250 -6z" />
<glyph unicode="&#xed;" horiz-adv-x="567" d="M53 0v96h142v633q0 57 -20.5 68.5t-115.5 11.5v96l357 17v-826h127v-96q-221 6 -240 6q-60 0 -250 -6zM162 1094q29 35 63.5 79t52 64t40 47t33.5 38t26.5 22.5t29 14.5t27.5 3q49 0 87 -41t38 -90q0 -53 -42 -81t-195 -93q-66 -27 -103 -43z" />
<glyph unicode="&#xee;" horiz-adv-x="567" d="M14 1042v2l289 304h2l289 -304v-2l-68 -69l-221 207h-2l-219 -207zM53 0v96h142v633q0 57 -20.5 68.5t-115.5 11.5v96l357 17v-826h127v-96q-221 6 -240 6q-60 0 -250 -6z" />
<glyph unicode="&#xef;" horiz-adv-x="681" d="M4 1245q0 61 46 110.5t114 49.5q63 0 110.5 -46t47.5 -113.5t-47.5 -114t-111 -46.5t-111.5 46t-48 114zM109 0v98h141v637q0 45 -23.5 58.5t-93.5 13.5h-16v98l356 17v-824h127v-98q-127 6 -225 6h-8q-129 0 -258 -6zM401 1245q0 66 46.5 113t111.5 47q63 0 111.5 -46 t48.5 -114q0 -70 -48 -115t-110 -45q-63 0 -111.5 46t-48.5 114z" />
<glyph unicode="&#xf0;" d="M55 449q0 229 133.5 354t313.5 125q59 0 112 -27q-63 133 -190 270q-20 -12 -45 -26.5t-39 -22.5t-30.5 -17t-26 -14.5t-19.5 -9.5t-16 -6t-12 -2q-14 0 -25.5 15.5t-13.5 33.5q0 16 18 28.5t141 82.5q-35 29 -69.5 52.5t-56 34.5t-38 20.5t-23.5 16.5t-7 17 q0 16 17.5 30.5t35.5 14.5q78 0 283 -104q166 102 190 102q37 0 41 -49q0 -16 -19.5 -29.5t-131.5 -78.5q33 -25 69.5 -55.5t98 -101.5t106.5 -150t79 -196.5t34 -244.5v-45q0 -111 -30 -197t-76 -137t-108.5 -85t-121 -46t-117.5 -12q-205 0 -331 125t-126 334zM317 465 q0 -186 27 -266q20 -59 67.5 -93t100.5 -34q88 0 141 82q49 78 49 288q0 229 -59 319.5t-137 90.5q-88 0 -139 -78q-49 -68 -50 -287v-22z" />
<glyph unicode="&#xf1;" horiz-adv-x="1136" d="M49 0v96h141v633q0 57 -21.5 68.5t-119.5 11.5v96l352 17v-207h2q100 207 312 207q158 0 217 -78t59 -211v-537h142v-96q-123 6 -256 6q-31 0 -252 -6v96h133v561q0 84 -13.5 129t-26.5 53.5t-34 8.5q-92 0 -176 -84t-84 -240v-428h141v-96q-172 6 -258 6t-258 -6z M248 1124q10 12 30.5 39t28 37t23.5 28.5t24.5 25.5t22.5 18.5t26.5 15.5t28 7t31.5 3q49 0 140 -31.5t141 -31.5q66 0 129 63l57 -45q-10 -12 -30.5 -38.5t-28 -37t-23.5 -29t-24.5 -25.5t-22.5 -18t-26.5 -15.5t-28 -7.5t-31.5 -3q-49 0 -140 32t-141 32q-66 0 -129 -64z " />
<glyph unicode="&#xf2;" d="M57 449q0 219 126 349t327 130q205 0 330 -131t125 -348q0 -213 -125 -337t-330 -124q-201 0 -327 123t-126 338zM314 1231q0 47 35.5 89t87.5 42q39 0 69.5 -27.5t134.5 -156.5q43 -51 70 -84l-57 -80q-258 109 -287 127q-53 35 -53 90zM319 469q0 -197 17 -264 q16 -63 65.5 -99t110.5 -36q57 0 106.5 34.5t63.5 92.5q20 70 20 272q0 193 -18 260q-14 51 -62.5 88t-111.5 37q-59 0 -108.5 -34t-63.5 -91q-19 -65 -19 -260z" />
<glyph unicode="&#xf3;" d="M57 449q0 219 126 349t327 130q205 0 330 -131t125 -348q0 -213 -125 -337t-330 -124q-201 0 -327 123t-126 338zM311 1094q23 27 48.5 59.5t40.5 51t33.5 41t30 34.5t24.5 27.5t21.5 21.5t19.5 14.5t19.5 11.5t17.5 5t19 2q49 0 86 -41t37 -90q0 -53 -38 -79t-197 -93 q-66 -29 -105 -45zM319 469q0 -197 17 -264q16 -63 65.5 -99t110.5 -36q57 0 106.5 34.5t63.5 92.5q20 70 20 272q0 193 -18 260q-14 51 -62.5 88t-111.5 37q-59 0 -108.5 -34t-63.5 -91q-19 -65 -19 -260z" />
<glyph unicode="&#xf4;" d="M57 449q0 219 126 349t327 130q205 0 330 -131t125 -348q0 -213 -125 -337t-330 -124q-201 0 -327 123t-126 338zM221 1044l289 304h2l291 -306l-70 -69l-221 207h-2l-219 -207zM319 469q0 -197 17 -264q16 -63 65.5 -99t110.5 -36q57 0 106.5 34.5t63.5 92.5 q20 70 20 272q0 193 -18 260q-14 51 -62.5 88t-111.5 37q-59 0 -108.5 -34t-63.5 -91q-19 -65 -19 -260z" />
<glyph unicode="&#xf5;" d="M57 449q0 219 126 349t327 130q205 0 330 -131t125 -348q0 -213 -125 -337t-330 -124q-201 0 -327 123t-126 338zM166 1124q10 12 30.5 39t28 37t23.5 28.5t24.5 25.5t22.5 18.5t26.5 15.5t28 7t31.5 3q49 0 140 -31.5t141 -31.5q66 0 129 63l57 -45q-10 -12 -30.5 -38.5 t-28 -37t-23.5 -29t-24.5 -25.5t-22.5 -18t-26.5 -15.5t-28 -7.5t-31.5 -3q-49 0 -140 32t-141 32q-66 0 -129 -64zM319 469q0 -197 17 -264q16 -63 65.5 -99t110.5 -36q57 0 106.5 34.5t63.5 92.5q20 70 20 272q0 193 -18 260q-14 51 -62.5 88t-111.5 37q-59 0 -108.5 -34 t-63.5 -91q-19 -65 -19 -260z" />
<glyph unicode="&#xf6;" d="M57 449q0 219 126 349t327 130q205 0 330 -131t125 -348q0 -213 -125 -337t-330 -124q-201 0 -327 123t-126 338zM152 1245q0 66 47 113t112.5 47t112.5 -45t47 -114.5t-49 -115t-111 -45.5q-63 0 -111 46t-48 114zM319 469q0 -197 17 -264q16 -63 65.5 -99t110.5 -36 q57 0 106.5 34.5t63.5 92.5q20 70 20 272q0 193 -18 260q-14 51 -62.5 88t-111.5 37q-59 0 -108.5 -34t-63.5 -91q-19 -65 -19 -260zM551 1245q0 63 45 111.5t113 48.5q63 0 111 -46t48 -114q0 -66 -47 -113t-112.5 -47t-111.5 45t-46 115z" />
<glyph unicode="&#xf7;" horiz-adv-x="1593" d="M115 512q0 49 51 59q14 2 47 2h1182q47 0 63.5 -20.5t16.5 -40.5q0 -61 -82 -61h-1198q-80 0 -80 61zM602 10q0 82 57.5 137.5t135.5 55.5q84 0 138 -58.5t54 -134.5q0 -82 -57.5 -137t-135 -55t-135 55t-57.5 137zM602 1012q0 82 57.5 137t135.5 55q84 0 138 -58.5 t54 -133.5q0 -82 -57.5 -137.5t-135 -55.5t-135 55.5t-57.5 137.5z" />
<glyph unicode="&#xf8;" d="M55 446q0 217 126 349.5t329 132.5q84 0 184 -35l121 233l66 -34l-119 -232q203 -129 203 -411q0 -215 -127 -338t-326 -123q-78 0 -184 32l-123 -235l-66 33l121 233q-205 119 -205 395zM289 444q0 -197 33 -272l327 631q-70 49 -137 49q-61 0 -114.5 -32t-78.5 -89 q-30 -70 -30 -287zM373 109q68 -45 137 -46q68 0 120 34t75 89q27 63 26 230q0 233 -33 321z" />
<glyph unicode="&#xf9;" horiz-adv-x="1136" d="M49 809v96l375 17v-707q0 -92 20.5 -123t110.5 -31q94 0 148.5 78t54.5 195v395q0 57 -21.5 68.5t-120.5 11.5v96l375 17v-746q0 -57 21.5 -68.5t120.5 -11.5v-96l-363 -12v139h-2q-78 -139 -242 -139q-162 0 -249 58t-87 204v479q0 57 -21.5 68.5t-119.5 11.5zM365 1231 q0 47 35.5 89t87.5 42q39 0 69.5 -27.5t134.5 -156.5q43 -51 70 -84l-57 -80q-258 109 -287 127q-53 35 -53 90z" />
<glyph unicode="&#xfa;" horiz-adv-x="1136" d="M49 809v96l375 17v-707q0 -92 20.5 -123t110.5 -31q94 0 148.5 78t54.5 195v395q0 57 -21.5 68.5t-120.5 11.5v96l375 17v-746q0 -57 21.5 -68.5t120.5 -11.5v-96l-363 -12v139h-2q-78 -139 -242 -139q-162 0 -249 58t-87 204v479q0 57 -21.5 68.5t-119.5 11.5zM391 1094 q23 27 48.5 59.5t40.5 51t33.5 41t30 34.5t24.5 27.5t21.5 21.5t19.5 14.5t19.5 11.5t17.5 5t19 2q49 0 86 -41t37 -90q0 -53 -38 -79t-197 -93q-66 -29 -105 -45z" />
<glyph unicode="&#xfb;" horiz-adv-x="1136" d="M49 809v96l375 17v-707q0 -92 20.5 -123t110.5 -31q94 0 148.5 78t54.5 195v395q0 57 -21.5 68.5t-120.5 11.5v96l375 17v-746q0 -57 21.5 -68.5t120.5 -11.5v-96l-363 -12v139h-2q-78 -139 -242 -139q-162 0 -249 58t-87 204v479q0 57 -21.5 68.5t-119.5 11.5zM301 1042 v2l289 304h2l289 -304v-2l-70 -69l-219 207h-2l-221 -207z" />
<glyph unicode="&#xfc;" horiz-adv-x="1136" d="M49 809v96l375 17v-707q0 -92 20.5 -123t110.5 -31q94 0 148.5 78t54.5 195v395q0 57 -21.5 68.5t-120.5 11.5v96l375 17v-746q0 -57 21.5 -68.5t120.5 -11.5v-96l-363 -12v139h-2q-78 -139 -242 -139q-162 0 -249 58t-87 204v479q0 57 -21.5 68.5t-119.5 11.5zM233 1245 q0 66 46.5 113t112 47t112.5 -45t47 -115q0 -61 -46 -110.5t-114 -49.5q-63 0 -110.5 46t-47.5 114zM631 1245q0 63 45 111.5t112 48.5q63 0 111.5 -46t48.5 -114q0 -66 -47 -113t-112.5 -47t-111.5 45t-46 115z" />
<glyph unicode="&#xfd;" horiz-adv-x="1079" d="M39 -221q0 57 35 88t82 31q51 0 84.5 -33t33.5 -84q0 -82 -75 -113q16 -4 32 -4q98 0 166 115q27 47 90 221l-315 813h-127v96q209 -6 229 -6q74 0 252 6v-96h-114q51 -150 196 -506l174 455l4 12l7 14q0 25 -107 25v96q80 -6 186 -6q86 0 162 6v-96q-90 0 -112.5 -9 t-34.5 -40l-363 -936q-35 -90 -112.5 -164t-182.5 -74q-82 0 -136 56.5t-54 132.5zM453 1094q23 27 48.5 59.5t40.5 51t33.5 41t30 34.5t24.5 27.5t21.5 21.5t19.5 14.5t19.5 11.5t17.5 5t19 2q49 0 86 -41t37 -90q0 -53 -38 -79t-197 -93q-66 -29 -105 -45z" />
<glyph unicode="&#xfe;" horiz-adv-x="1136" d="M31 -301h143v1552q-2 45 -27.5 56.5t-101.5 11.5h-14v96l364 19v-600q119 88 256 88q184 0 301 -127t117 -336q0 -223 -130 -346t-318 -123q-117 0 -213 73v-364h141v-98q-135 6 -268 6q-23 0 -250 -6v98zM408 219q0 -59 61 -107.5t129 -48.5q80 0 144.5 91.5t64.5 302.5 q0 158 -47 269.5t-142 111.5q-72 0 -141 -44t-69 -102v-473z" />
<glyph unicode="&#xff;" horiz-adv-x="1079" d="M39 -221q0 57 35 88t82 31q51 0 84.5 -33t33.5 -84q0 -82 -75 -113q16 -4 32 -4q98 0 166 115q27 47 90 221l-315 813h-127v96q209 -6 229 -6q74 0 252 6v-96h-114q51 -150 196 -506l174 455l4 12l7 14q0 25 -107 25v96q80 -6 186 -6q86 0 162 6v-96q-90 0 -112.5 -9 t-34.5 -40l-363 -936q-35 -90 -112.5 -164t-182.5 -74q-82 0 -136 56.5t-54 132.5zM180 1245q0 61 46 110.5t114 49.5q63 0 111.5 -46t48.5 -114q0 -61 -46 -110.5t-114 -49.5q-63 0 -111.5 46t-48.5 114zM580 1245.5q0 63.5 45 111.5t112 48q63 0 111.5 -46t48.5 -114 q0 -70 -49 -115t-111 -45q-70 0 -113.5 48.5t-43.5 112z" />
<glyph unicode="&#x152;" horiz-adv-x="2080" d="M147 694q0 336 188.5 534.5t495.5 198.5q57 0 173 -11t206 -11h695l61 -496h-98q-12 98 -23.5 150.5t-40 109t-78.5 86.5q-80 51 -258 52h-159v-529h108q41 0 66.5 2t60.5 12.5t57.5 37t32.5 67.5q10 39 11 121h98v-578h-98q0 82 -12.5 129t-51.5 76q-47 35 -166 35h-106 v-582h184q74 0 131 11.5t97 29t72 52t50.5 65.5t34.5 88t25.5 100t21.5 119h98l-94 -563h-721q-80 0 -202.5 -11.5t-174.5 -11.5q-313 0 -498.5 199t-185.5 518zM451 725q0 -291 98 -481.5t287 -190.5q141 0 181 80t40 322v493q0 238 -39 321t-180 83q-51 0 -100.5 -15.5 t-102.5 -59.5t-93 -111.5t-65.5 -181.5t-25.5 -259z" />
<glyph unicode="&#x153;" horiz-adv-x="1593" d="M55 459q0 217 129 343t328 126q195 0 338 -135q121 135 321 135q102 0 177 -39t113 -104.5t55.5 -134t17.5 -142.5q0 -29 -9 -43t-20.5 -16.5t-34.5 -2.5h-501q0 -211 78 -299q68 -76 165 -75q78 0 136.5 47t81.5 108l4 11q4 10 6 12t7 9t9 10t11.5 5t17.5 2q47 0 47 -38 q0 -68 -92 -158t-242 -90q-215 0 -344 137h-2q-123 -137 -340 -137q-207 0 -332 129t-125 340zM295 446q0 -233 74 -315q61 -68 145 -68q51 0 104.5 31t83.5 105q29 74 33 241v62q0 55 -3 92t-17.5 95.5t-50 98t-91.5 56.5q-27 8 -59 8q-90 0 -147 -66q-72 -78 -72 -280v-60 zM969 514h370q-2 61 -6 98t-19.5 103.5t-52 101.5t-92.5 35q-57 0 -108 -44t-74 -126q-14 -55 -18 -168z" />
<glyph unicode="&#x178;" horiz-adv-x="1546" d="M33 1309v96q74 -6 307 -6q268 0 342 6v-96h-154l342 -600l332 579q-49 20 -141 21v96q104 -6 244 -6q68 0 208 6v-96q-84 0 -125.5 -5.5t-52 -12.5t-20.5 -25l-404 -705v-465h195v-96q-72 6 -334 6q-260 0 -332 -6v96h193v465l-426 748h-174zM414 1671q0 66 46 113 t111 47q70 0 115 -48t45 -111.5t-45 -112t-113 -48.5q-63 0 -111 46t-48 114zM811 1671q0 61 46 110.5t114 49.5q63 0 110 -46t47 -114q0 -66 -46 -113t-111 -47q-63 0 -111.5 46t-48.5 114z" />
<glyph unicode="&#x2c6;" d="M221 1044l289 304h2l291 -306l-70 -69l-221 207h-2l-219 -207z" />
<glyph unicode="&#x2dc;" d="M170 1247q10 12 30.5 39t28 37t23.5 28.5t24.5 25.5t22.5 18.5t26.5 15.5t28 7t31.5 3q49 0 140 -31.5t141 -31.5q66 0 129 63l57 -45q-10 -12 -30.5 -38.5t-28 -37t-23.5 -29t-24.5 -25.5t-22.5 -18t-26.5 -15.5t-28 -7.5t-31.5 -3q-49 0 -140 32t-141 32 q-66 0 -129 -64z" />
<glyph unicode="&#x2000;" horiz-adv-x="923" />
<glyph unicode="&#x2001;" horiz-adv-x="1847" />
<glyph unicode="&#x2002;" horiz-adv-x="923" />
<glyph unicode="&#x2003;" horiz-adv-x="1847" />
<glyph unicode="&#x2004;" horiz-adv-x="615" />
<glyph unicode="&#x2005;" horiz-adv-x="461" />
<glyph unicode="&#x2006;" horiz-adv-x="307" />
<glyph unicode="&#x2007;" horiz-adv-x="307" />
<glyph unicode="&#x2008;" horiz-adv-x="230" />
<glyph unicode="&#x2009;" horiz-adv-x="369" />
<glyph unicode="&#x200a;" horiz-adv-x="102" />
<glyph unicode="&#x2010;" horiz-adv-x="681" d="M20 356v199h545v-199h-545z" />
<glyph unicode="&#x2011;" horiz-adv-x="681" d="M20 356v199h545v-199h-545z" />
<glyph unicode="&#x2012;" horiz-adv-x="681" d="M20 356v199h545v-199h-545z" />
<glyph unicode="&#x2013;" d="M0 524v74h1022v-74h-1022z" />
<glyph unicode="&#x2014;" horiz-adv-x="2048" d="M0 524v74h2046v-74h-2046z" />
<glyph unicode="&#x2018;" horiz-adv-x="569" d="M94 963q0 94 32 184t73 146.5t78.5 91t54.5 34.5q14 0 26.5 -11t12.5 -26q0 -12 -30 -42.5t-65.5 -70.5t-68.5 -118t-37 -170q51 43 113 43q68 0 113.5 -45t45.5 -115q0 -68 -44 -113.5t-113 -45.5q-84 0 -137.5 72.5t-53.5 185.5z" />
<glyph unicode="&#x2019;" horiz-adv-x="569" d="M123 1262q0 68 44 113.5t114 45.5q84 0 137 -73.5t53 -184.5q0 -94 -31.5 -184t-72.5 -146.5t-79 -90t-55 -33.5q-14 0 -26 10t-12 24q0 12 29.5 44t65.5 71t68.5 117t36.5 172q-55 -45 -112 -45q-68 0 -114 45t-46 115z" />
<glyph unicode="&#x201a;" horiz-adv-x="569" d="M125 160q0 68 44 113.5t114 45.5q86 0 135 -73.5t49 -182.5q0 -125 -53.5 -238.5t-106.5 -167.5t-74 -54q-12 0 -25 13t-13 28q0 12 24 34q160 141 172 359q-37 -37 -106 -37q-74 0 -117 47t-43 113z" />
<glyph unicode="&#x201c;" horiz-adv-x="774" d="M-61 961q0 94 31.5 184t72.5 146.5t79 91t54 34.5q12 0 25.5 -10t13.5 -27q0 -12 -29.5 -42.5t-65.5 -69.5t-69 -118t-37 -171q51 43 113 43q68 0 114 -45t46 -112.5t-44 -113.5t-114 -46q-86 0 -138 71.5t-52 184.5zM461 961q0 94 31.5 184t72.5 146.5t79 91t54 34.5 q12 0 25.5 -10t13.5 -27q0 -12 -29.5 -42.5t-65.5 -69.5t-68.5 -118t-36.5 -171q53 43 112 43q68 0 114 -45t46 -112.5t-44 -113.5t-114 -46q-86 0 -138 71.5t-52 184.5z" />
<glyph unicode="&#x201d;" horiz-adv-x="774" d="M-33 1262q0 68 44 113.5t114 45.5q84 0 137 -73.5t53 -184.5q0 -94 -31.5 -184t-72.5 -146.5t-79 -90t-54 -33.5q-12 0 -25.5 10t-13.5 26q0 12 29.5 43t65.5 70t69 118t37 171q-55 -45 -113 -45q-68 0 -114 45t-46 115zM489 1262q0 68 44.5 113.5t113.5 45.5 q84 0 137.5 -73.5t53.5 -184.5q0 -94 -32 -184t-73 -146.5t-79 -90t-54 -33.5q-12 0 -25.5 10t-13.5 26q0 12 30 43t65.5 70t68.5 118t37 171q-55 -45 -113 -45q-68 0 -114 45t-46 115z" />
<glyph unicode="&#x201e;" horiz-adv-x="774" d="M-33 160q0 68 44 113.5t114 45.5q84 0 137 -73.5t53 -184.5q0 -94 -31.5 -184t-72.5 -146.5t-79 -90t-54 -33.5q-12 0 -25.5 10t-13.5 26q0 12 29.5 43t65.5 70t69 118t37 171q-55 -45 -113 -45q-68 0 -114 45t-46 115zM489 160q0 68 44.5 113.5t113.5 45.5 q84 0 137.5 -73.5t53.5 -184.5q0 -94 -32 -184t-73 -146.5t-79 -90t-54 -33.5q-12 0 -25.5 10t-13.5 26q0 12 30 43t65.5 70t68.5 118t37 171q-55 -45 -113 -45q-68 0 -114 45t-46 115z" />
<glyph unicode="&#x2022;" d="M113 512q0 176 110.5 287.5t288.5 111.5t287.5 -110.5t109.5 -288.5q0 -176 -110.5 -287.5t-288.5 -111.5q-176 0 -286.5 110.5t-110.5 288.5z" />
<glyph unicode="&#x2026;" horiz-adv-x="1708" d="M123 160q0 70 49 114.5t111 44.5q63 0 111 -46t48 -113q0 -61 -46 -110.5t-113 -49.5q-63 0 -111.5 46t-48.5 114zM692 160q0 70 49 114.5t111 44.5q63 0 111 -46t48 -113q0 -61 -46 -110.5t-113 -49.5q-63 0 -111.5 46t-48.5 114zM1262 160q0 70 49 114.5t111 44.5 q63 0 111 -46t48 -113q0 -61 -46 -110.5t-113 -49.5q-63 0 -111.5 46t-48.5 114z" />
<glyph unicode="&#x202f;" horiz-adv-x="369" />
<glyph unicode="&#x2039;" horiz-adv-x="909" d="M229 483q0 14 36 45t86 72t120 129t125 199q23 39 47 39h2q33 0 33 -33q0 -41 -61.5 -184.5t-151.5 -266.5q84 -109 148.5 -258t64.5 -190q0 -33 -35 -33q-31 0 -47 39q-55 109 -124 197t-120 130t-87 72.5t-36 42.5z" />
<glyph unicode="&#x203a;" horiz-adv-x="909" d="M229 35q0 41 60.5 183t150.5 265q-84 109 -147.5 258.5t-63.5 192.5q0 33 33 33q31 0 47 -39q53 -109 123 -197t121 -130t87 -72.5t36 -45.5q0 -12 -20.5 -30.5t-57.5 -48t-81 -71.5t-101.5 -119t-106.5 -173q-16 -39 -47 -39q-33 0 -33 33z" />
<glyph unicode="&#x205f;" horiz-adv-x="461" />
<glyph unicode="&#x20ac;" horiz-adv-x="1593" d="M84 608q0 27 10 37t37 10h154q-2 25 -2 74q0 23 4 76h-156q-47 0 -47 49q0 31 12.5 40t38.5 9h168q51 213 208 339t382 155q57 8 170 8h301h16t12.5 -3t9.5 -5t6 -8.5t5 -10.5t4 -15t3 -18.5t3 -24.5t4 -30q47 -330 48 -344q0 -39 -43 -39q-23 0 -35 8q-14 6 -23.5 63.5 t-24 133.5t-36.5 115q-47 80 -146 80h-123q-98 0 -175.5 -35t-122 -80t-76 -108.5t-42 -101.5t-18.5 -79q90 0 141.5 4t114 22.5t94 53.5t54 100.5t22.5 159.5v14.5t2 14.5t7.5 15t15.5 9t24 4q27 0 38.5 -10t11.5 -41v-395q-2 -33 -13.5 -41t-40.5 -8h-483q-2 -25 -2 -76 q0 -12 1 -36.5t1 -37.5h483q20 0 29.5 -2t17 -12t7.5 -33v-395q0 -33 -11.5 -43t-40.5 -10q-16 0 -26 3t-14.5 14t-5.5 20.5t-1 35t-2 41.5q-6 78 -31.5 132.5t-58.5 84t-92 45t-110.5 19.5t-135.5 4q86 -461 436 -461h88q76 0 109 29q43 35 67.5 100.5t63.5 268.5 q12 53 27 59q10 6 33 6q45 0 45 -35q0 -6 -45 -243l-44 -240q-4 -20 -13 -30.5t-17 -11.5t-27 -1h-285q-143 0 -259.5 30.5t-193.5 84t-132.5 112t-88 128t-48 114.5t-23.5 90h-164q-27 0 -39 9t-12 40z" />
<glyph unicode="&#x2122;" horiz-adv-x="1366" d="M4 1501q0 35 57 35h547q70 0 70 -37q0 -39 -84 -39q-8 0 -25.5 1t-25.5 1h-154v-647q0 -68 -47 -67q-49 0 -49 63v651h-213q-76 0 -76 39zM748 799v702q0 55 49 55q35 0 59 -53l166 -364h2q4 10 164 360q25 57 63 57q49 0 49 -61v-684q0 -63 -51 -63q-8 0 -14 1t-10 3 t-8.5 6t-6.5 7t-4 9t-3 8t-1 9.5v8.5v9v8v432q0 8 -1 25.5t-1 25.5q-4 -10 -12 -27.5t-35 -74.5t-63 -139q-2 -2 -4.5 -9.5t-4.5 -11.5l-5 -10t-6 -10t-6 -9t-7 -8.5t-9.5 -6.5t-11.5 -4t-12 -1q-27 0 -41 22.5t-74 151.5q-39 82 -63 137v-471q0 -39 -6 -55q-12 -27 -45 -26 q-45 0 -47 51z" />
</font>
</defs>
</svg>
